<svg width="20.000000" height="20.000000" viewBox="0 0 20 20" fill="none" xmlns="http://www.w3.org/2000/svg" xmlns:xlink="http://www.w3.org/1999/xlink">
	<desc>
			Created with Pixso.
	</desc>
	<defs/>
	<path id="Union" d="M0.83 10C0.83 4.93 4.93 0.83 10 0.83C15.06 0.83 19.16 4.93 19.16 10C19.16 15.06 15.06 19.16 10 19.16C4.93 19.16 0.83 15.06 0.83 10ZM10 2.5C5.85 2.5 2.5 5.85 2.5 10C2.5 14.14 5.85 17.5 10 17.5C14.14 17.5 17.5 14.14 17.5 10C17.5 5.85 14.14 2.5 10 2.5ZM10 4.58C10.46 4.58 10.83 4.95 10.83 5.41L10.83 9.65L13.08 11.91C13.41 12.23 13.41 12.76 13.08 13.08C12.76 13.41 12.23 13.41 11.91 13.08L9.41 10.58C9.25 10.43 9.16 10.22 9.16 10L9.16 5.41C9.16 4.95 9.54 4.58 10 4.58Z" fill="#787A80" fill-opacity="1.000000" fill-rule="evenodd"/>
</svg>
