<svg width="20.000000" height="20.000000" viewBox="0 0 20 20" xmlns="http://www.w3.org/2000/svg" xmlns:xlink="http://www.w3.org/1999/xlink">
	<desc>
			Created with Pixso.
	</desc>
	<defs/>
	<path id="Vector" d="M14.63 0.83L12.32 0.83C9.72 0.83 8.04 2.6 8.04 5.34L8.04 7.42L5.71 7.42C5.51 7.42 5.34 7.59 5.34 7.8L5.34 10.81C5.34 11.02 5.51 11.18 5.71 11.18L8.04 11.18L8.04 18.79C8.04 19 8.2 19.16 8.4 19.16L11.44 19.16C11.64 19.16 11.8 19 11.8 18.79L11.8 11.18L14.52 11.18C14.72 11.18 14.88 11.02 14.88 10.81L14.89 7.8C14.89 7.7 14.85 7.6 14.78 7.53C14.71 7.46 14.62 7.42 14.52 7.42L11.8 7.42L11.8 5.66C11.8 4.81 12 4.38 13.07 4.38L14.63 4.38C14.83 4.38 14.99 4.21 14.99 4L14.99 1.21C14.99 1 14.83 0.83 14.63 0.83Z"/>
</svg>
