<svg width="16.666016" height="16.666016" viewBox="0 0 16.666 16.666" fill="none" xmlns="http://www.w3.org/2000/svg" xmlns:xlink="http://www.w3.org/1999/xlink">
	<desc>
			Created with Pixso.
	</desc>
	<defs/>
	<path id="Vector" d="M0 2C0 0.89 0.89 0 2 0C3.1 0 4 0.89 4 2C4 3.1 3.1 4.02 2 4.02C0.89 4.02 0 3.1 0 2ZM16.66 16.66L16.66 16.66L16.66 10.55C16.66 7.56 16.02 5.25 12.52 5.25C10.84 5.25 9.71 6.18 9.25 7.05L9.2 7.05L9.2 5.53L5.89 5.53L5.89 16.66L9.34 16.66L9.34 11.15C9.34 9.7 9.62 8.3 11.41 8.3C13.18 8.3 13.21 9.95 13.21 11.25L13.21 16.66L16.66 16.66ZM0.27 5.53L3.73 5.53L3.73 16.66L0.27 16.66L0.27 5.53Z" fill="#FFFFFF" fill-opacity="1.000000" fill-rule="evenodd"/>
</svg>
