<svg width="20.000000" height="20.000000" viewBox="0 0 20 20" xmlns="http://www.w3.org/2000/svg" xmlns:xlink="http://www.w3.org/1999/xlink">
	<desc>
			Created with Pixso.
	</desc>
	<defs/>
	<path id="Vector" d="M18.75 4.81C18.1 5.08 17.41 5.26 16.68 5.35C17.42 4.92 17.99 4.25 18.26 3.45C17.57 3.84 16.8 4.13 15.98 4.28C15.33 3.61 14.39 3.19 13.36 3.19C11.38 3.19 9.77 4.73 9.77 6.63C9.77 6.9 9.8 7.16 9.86 7.41C6.88 7.27 4.24 5.9 2.46 3.82C2.16 4.33 1.98 4.92 1.98 5.55C1.98 6.74 2.61 7.8 3.58 8.41C2.99 8.39 2.43 8.24 1.95 7.98L1.95 8.02C1.95 9.69 3.19 11.08 4.83 11.39C4.53 11.47 4.21 11.51 3.88 11.51C3.65 11.51 3.43 11.49 3.21 11.45C3.66 12.82 4.99 13.81 6.56 13.84C5.33 14.76 3.78 15.31 2.1 15.31C1.81 15.31 1.53 15.29 1.25 15.26C2.83 16.24 4.72 16.81 6.75 16.81C13.35 16.81 16.96 11.57 16.96 7.03L16.95 6.58C17.66 6.1 18.26 5.49 18.75 4.81Z" />
</svg>
