<svg width="567.638672" height="208.105469" viewBox="0 0 567.639 208.105" fill="none" xmlns="http://www.w3.org/2000/svg" xmlns:xlink="http://www.w3.org/1999/xlink">
	<desc>
			Created with Pixso.
	</desc>
	<defs/>
	<path id="Vector" d="M9.34 150.41C8.9 150.62 7.72 150.2 7.35 149.71C7.06 149.31 6.14 149.46 5.34 149.53C5.52 149.64 5.71 149.78 5.85 150.02C6.3 150.77 4.09 150.86 4.78 151.75C5.46 152.64 3.21 152.69 3.21 151.75C3.21 150.81 0.85 151.28 0.95 151.89C0.99 152.11 0.92 152.38 0.75 152.64C1.4 152.86 2.14 153.12 2.43 153.23C2.88 153.39 8.76 153.98 11.06 153.58C10.93 153.17 11.18 151.94 11.18 151.47C11.18 150.91 9.78 150.2 9.34 150.41ZM151.28 5.93C155 5.56 154.9 3.59 152.94 3.21C150.98 2.84 150.69 4.34 149.71 4.25C148.72 4.15 145.02 4.84 145.78 5.65C146.67 6.59 149.41 6.12 151.28 5.93ZM170.21 58.09C171.48 58.28 174.92 57.62 175.31 56.96C175.7 56.31 173.94 55.56 171.68 55.56C169.42 55.56 169.1 57.92 170.21 58.09ZM242.69 10.16C244.56 10.91 243.87 11.37 241.91 11.37C239.95 11.37 238.26 12.01 239.56 12.5C240.54 12.88 240.44 13.91 242.5 14.38C244.56 14.84 246.62 13.25 246.42 12.12C246.22 11 253.58 9.97 255.55 9.5C257.51 9.03 254.27 7.06 256.43 6.87C258.59 6.68 257.7 5.75 255.05 5.37C252.41 4.99 253.49 2.84 252.6 2.09C251.72 1.34 251.23 3.02 247.8 3.68C244.36 4.34 242.69 5.18 244.07 5.84C245.44 6.5 244.07 8.09 242.6 8C241.13 7.9 240.83 9.41 242.69 10.16ZM247.9 12.78C247.9 13.81 244.74 14.84 245.64 15.6C246.43 16.25 247.11 16.07 248.09 16.25C249.07 16.44 249.56 18.79 251.33 18.41C253.1 18.04 257.9 20.29 260.75 20.29C263.59 20.29 263.88 18.04 263 17.94C262.12 17.85 262.91 16.53 264.47 14.38C266.04 12.22 259.57 10.63 259.57 12.31C259.57 14 257.7 11.94 257.12 10.91C256.53 9.87 247.9 11.75 247.9 12.78ZM198.85 59.5C200.42 60.25 201.6 59.96 201.4 58.46C201.2 56.96 197.6 58.9 198.85 59.5ZM240.15 3.5C240.54 2.09 234.03 2.7 235.73 4.06C236.32 4.53 239.75 4.9 240.15 3.5ZM528.83 71.5C530.79 72.44 531.96 70.38 533.53 71.41C535.11 72.44 538.93 70.94 540.5 70.66C542.07 70.38 541.29 68.5 536.87 67.94C532.46 67.38 526.72 70.49 528.83 71.5ZM263.1 26.01C264.47 26.76 268.89 25.07 271.83 25.16C274.77 25.26 283.01 23 283.31 21.51C283.6 20 280.26 20.1 278.99 18.78C277.72 17.47 274.87 18.6 274.18 19.72C273.5 20.85 272.71 19.82 274.57 18.03C276.44 16.25 272.71 14.84 272.61 15.97C272.51 17.1 269.08 16.16 269.08 17.19C269.08 18.22 267.81 18.69 267.91 19.72C268 20.75 265.55 19.16 265.45 21.5C265.36 23.85 261.65 25.22 263.1 26.01ZM389.64 45.33C391.01 45.99 391.5 46.64 392.28 47.39C393.07 48.14 396.01 47.02 397.19 46.64C398.36 46.27 398.46 48.33 400.33 47.21C402.19 46.08 404.05 46.64 406.21 46.64C408.37 46.64 405.82 44.11 405.92 42.99C406.02 41.86 408.47 42.61 407.68 43.55C406.9 44.49 408.86 46.64 412 46.46C415.14 46.27 412.78 44.39 414.35 43.74C415.92 43.08 415.73 42.33 413.47 41.01C411.22 39.7 408.27 40.55 406.31 39.7C404.21 38.8 401.7 38.76 401.6 40.83C401.5 42.89 397.38 38.57 395.22 37.92C393.07 37.26 386.39 43.78 389.64 45.33ZM410.14 57.34C411.9 56.96 408.86 53.87 405.82 53.4C402.78 52.93 399.95 55.32 400.33 55.84C401.21 57.06 408.37 57.71 410.14 57.34ZM402.29 51.15C402.29 49.74 396.95 51.66 399.15 52.37C400.33 52.74 402.29 52.55 402.29 51.15ZM419.36 45.24C421.71 45.42 422.89 47.58 427.4 47.86C431.92 48.15 435.25 47.3 435.35 46.36C435.45 45.42 431.23 44.02 429.95 44.77C428.68 45.52 427.7 43.55 426.13 44.02C424.56 44.49 422.4 44.39 421.61 43.08C420.83 41.77 418.18 45.14 419.36 45.24ZM91.64 7.15C93.89 5.18 96.83 7.06 97.23 6.12C97.62 5.18 93.01 4.9 91.34 5.75C89.67 6.59 85.77 5.91 86.24 6.96C86.54 7.62 89.38 9.12 91.64 7.15ZM409.35 165.68C408.27 162.96 410.92 160.33 408.96 158.92C407 157.52 407.78 154.61 406.8 155.17C405.82 155.74 406.8 158.27 405.23 158.46C403.66 158.64 405.13 160.05 404.55 161.93C403.96 163.8 404.84 166.52 405.63 168.21C406.41 169.9 404.55 178.9 405.33 180.41C406.11 181.91 404.05 188.54 404.74 189.31C405.92 190.63 405.13 187.53 406.9 187.25C408.67 186.97 408.67 189.13 409.75 189.6C410.82 190.06 410.14 186.59 409.16 186.78C408.18 186.97 407.39 184.53 406.9 183.03C406.41 181.53 407.88 179.75 407.88 177.87C407.88 175.99 410.34 176.09 411.81 177.49C413.28 178.9 413.47 177.96 412.89 176.93C412.3 175.9 410.43 168.4 409.35 165.68ZM100.86 6.31C102.23 7.25 97.03 6.96 96.34 7.9C95.66 8.84 92.64 8.5 93.21 9.59C93.8 10.72 98.7 10.81 98.7 9.87C98.7 8.93 101.25 9.78 101.35 8.93C101.45 8.09 102.52 7.15 105.27 6.96C108.02 6.78 108.02 5.84 105.47 4.71C102.92 3.59 99.48 5.37 100.86 6.31ZM96.64 82.1C99.29 84.44 101.55 81.07 102.82 80.88C104.1 80.7 102.03 79.38 99.88 78.82C97.72 78.26 94.64 80.33 96.64 82.1ZM566.54 98.09C565.56 97.77 562.42 95.84 561.64 94.76C560.85 93.69 557.08 93.17 557.08 93.73C557.08 94.3 555.85 93.59 555.56 92.98C555.26 92.37 551.29 92.28 551.24 92.93C551.19 93.59 552.17 93.64 552.76 94.39C553.35 95.14 551.97 95.56 552.27 96.41C552.56 97.25 550.8 95.98 550.16 95.52C549.52 95.05 549.82 93.22 550.01 92.28C550.21 91.34 548.89 91.53 548.74 90.59C548.59 89.65 544.18 87.73 542.32 86.98C540.45 86.23 538.05 85.57 537.41 84.64C536.77 83.7 533.44 83.6 532.16 82.34C530.89 81.07 525.29 78.82 522.89 78.68C520.49 78.54 521.03 77.27 519.85 77.46C518.67 77.65 513.62 77.41 512.05 77.18C510.48 76.95 510.14 78.07 509.01 77.65C507.88 77.23 502.04 75.21 501.36 75.96C500.67 76.71 500.97 77.79 500.28 77.98C499.6 78.16 500.28 79.1 501.9 80.51C503.52 81.92 502.53 83 501.06 83.6C499.59 84.21 497.24 83.04 496.5 81.96C495.77 80.89 493.76 81.35 493.26 79.95C492.77 78.54 493.85 78.31 494.84 79.1C495.82 79.9 497.14 79.24 497.29 78.21C497.43 77.18 494.64 76.48 493.12 76.57C491.6 76.66 490.76 78.68 489.19 79.53C487.63 80.37 481.54 79.2 480.91 78.64C480.27 78.08 471.78 78.64 470.9 79.2C470.02 79.76 470.66 81.96 470.21 82.15C469.77 82.34 469.33 79.62 469.33 79.1C469.33 78.58 468.3 78.21 466.78 78.21C465.26 78.21 464.38 78.16 465.02 77.56C465.66 76.95 464.43 76.33 465.6 75.54C466.78 74.74 463.45 72.25 460.21 71.04C456.97 69.82 449.62 70.52 447.65 71.08C445.69 71.65 441.77 71.46 439.91 71.5C438.04 71.55 439.56 70.8 439.02 69.96C438.49 69.11 435.3 68.08 434.85 68.79C434.41 69.49 433.58 68.79 433.58 68.27C433.58 67.75 430.59 66.72 429.41 66.96C428.24 67.19 427.7 65.92 429.07 65.92C430.44 65.92 432.8 66.2 431.77 64.7C430.74 63.2 421.91 62.73 421.08 63.01C420.24 63.3 421.03 64.37 419.11 66.11C417.2 67.84 415.34 66.67 415.58 65.83C415.83 64.99 418.18 65.13 418.18 64.28C418.18 63.44 414.94 63.91 414.45 63.2C413.96 62.5 415.14 62.03 416.32 62.36C417.49 62.69 419.55 62.88 419.65 62.36C419.75 61.84 418.43 61.75 416.46 61.42C414.5 61.09 409.74 60.01 407.24 60.25C404.74 60.48 403.61 59.36 402.24 59.26C400.87 59.17 400.87 59.97 401.51 60.72C402.14 61.47 400.18 61.94 398.56 61.7C396.94 61.47 394.59 62.55 395.52 63.67C396.45 64.8 397.39 63.34 398.17 63.72C398.95 64.1 396.11 64.89 397.29 65.41C398.46 65.92 398.27 67 398.32 67.57C398.36 68.13 396.35 68.41 395.62 67.57C394.88 66.72 393.85 67.47 392.48 67.38C391.11 67.28 390.08 67.89 391.55 68.08C393.02 68.27 393.51 69.16 391.55 69.35C389.59 69.54 390.07 67.61 388.9 67.85C387.72 68.08 385.17 66.96 383.8 67C382.43 67.05 381.79 68.08 379.97 68.22C378.16 68.36 375.71 67.33 374.97 66.39C374.24 65.45 373.99 65.17 373.11 66.25C372.23 67.33 372.18 69.4 371.29 69.54C370.41 69.68 370.07 71.5 369.18 71.98C368.3 72.44 368.25 71.27 367.12 71.37C366 71.46 362.37 68.08 362.17 67.1C361.97 66.11 359.72 64.24 359.13 63.86C358.54 63.49 359.72 63.3 360.45 63.91C361.19 64.52 362.12 64.52 362.86 64.14C363.59 63.77 363.5 62.03 362.22 61.98C360.94 61.94 361.43 60.91 362.07 60.72C362.71 60.53 360.6 58.7 361.39 58.51C362.17 58.33 361.83 57.53 360.75 57.39C359.67 57.25 358.54 56.4 358.49 55.89C358.44 55.37 353.88 55.18 354.08 55.93C354.27 56.68 352.6 56.45 352.85 55.84C353.1 55.23 351.23 55.42 349.07 54.85C346.92 54.29 346.87 52.84 346.13 52.75C345.4 52.65 345.64 54.76 344.57 54.29C343.49 53.82 342.31 54.71 342.89 55.93C343.48 57.15 342.94 57.34 342.85 58.33C342.75 59.31 342.16 58.89 340.89 58.47C339.61 58.04 339.61 59.5 336.86 58.84C334.12 58.18 332.89 58.89 332.4 58.04C331.91 57.2 331.08 57.11 330.98 57.81C330.88 58.51 326.66 58.23 326.32 57.2C325.98 56.17 327.05 55.98 327.69 55.7C328.33 55.42 327.01 55 324.7 55.14C322.4 55.28 320.92 54.01 318.57 54.24C316.21 54.48 310.97 54.95 310.23 55.28C309.5 55.6 310.92 56.87 309.79 56.96C308.66 57.06 309.45 54.9 309.25 53.87C309.06 52.83 307.34 52.69 307.58 53.49C307.82 54.29 304.88 54.57 304.15 53.96C303.42 53.35 302.24 52.55 300.32 52.08C298.41 51.62 296.06 53.59 296.6 54.15C297.14 54.71 298.56 54.29 298.61 54.66C298.71 55.44 294.54 55.14 294.54 55.79C294.54 56.45 290.66 57.34 289.49 57.48C286.26 57.87 285.56 57.85 284.04 59.07C282.52 60.29 283.7 58 284.88 56.87C286.05 55.75 287.28 56.21 287.97 55.32C288.65 54.43 289.73 54.52 291.6 54.24C293.46 53.96 293.36 52.93 294.25 52.56C295.13 52.18 297.28 51.38 297.68 50.54C298.07 49.69 302.48 48.29 303.37 48.33C304.25 48.38 304.44 46.65 304.93 46.65C305.43 46.65 307.97 45.57 308.95 45.15C309.94 44.73 310.43 43.83 310.48 43.22C310.52 42.61 309.15 42.71 309 42.14C308.85 41.58 309.64 41.96 310.67 41.58C311.7 41.21 310.67 39.89 309.84 40.13C309 40.36 310.28 39.42 309.54 38.58C308.81 37.74 307.34 39.09 307.38 38.2C307.43 37.31 307.28 36.19 306.7 35.63C306.11 35.06 305.03 36.61 303.8 35.72C302.58 34.83 299 34.26 299 34.64C299 35.02 297.28 34.08 296.94 34.45C296.6 34.83 293.75 34.78 292.86 34.55C291.98 34.31 290.76 34.87 290.71 35.72C290.66 36.57 287.18 36.24 286.54 36.09C285.9 35.95 288.94 33.56 288.94 33.14C288.94 32.72 283.79 33.23 283.5 32.77C283.2 32.3 280.7 32.15 279.57 32.2C278.44 32.25 279.53 31.92 280.56 31.83C281.59 31.73 282.52 30.89 283.65 30.7C284.77 30.51 284.53 30.14 284.04 29.48C283.55 28.83 282.37 29.15 281.24 28.83C280.11 28.5 278.74 28.03 277.76 27.98C276.78 27.94 275.7 28.45 273.4 28.87C271.09 29.29 270.89 30.98 269.72 31.5C268.54 32.02 266.48 34.08 267.46 34.26C268.44 34.45 267.95 35.02 268.1 35.63C268.25 36.23 267.36 36.37 266.24 36.19C265.11 36 261.13 36.05 261.18 36.84C261.23 37.64 263.49 38.02 263.34 38.44C263.2 38.86 261.63 38.39 260.84 37.97C260.06 37.55 258.29 37.78 257.95 38.58C257.6 39.38 256.23 39.19 255.79 39C255.35 38.82 254.37 39.38 253.63 39.14C252.9 38.91 255.1 37.88 254.56 37.36C254.02 36.85 251.67 37.32 251.43 38.16C251.18 39 249.76 37.55 249.22 37.83C248.68 38.11 248.09 38.44 247.06 38.86C246.03 39.28 244.27 38.39 243.87 39.14C243.48 39.89 245.83 40.13 245.88 40.46C245.93 40.79 240.54 40.74 240.39 41.25C240.24 41.77 238.43 41.77 236.22 41.82C234.01 41.87 234.9 42.9 233.13 43.23C231.36 43.56 230.58 43.6 229.99 44.45C229.41 45.29 228.03 45.43 227.44 44.77C226.85 44.12 225.23 45.1 226.12 45.19C227 45.29 226.17 46.13 225.63 45.94C225.09 45.76 223.52 46.84 224.4 46.74C225.28 46.65 225.73 47.35 225.28 47.87C224.84 48.38 222.93 47.26 222.44 47.73C221.95 48.2 223.37 48.81 224.25 48.71C225.14 48.62 225.63 49.18 225.73 49.79C225.82 50.4 223.66 49.41 223.22 49.93C222.78 50.45 223.57 50.68 224.5 50.78C225.43 50.87 224.74 51.2 225.58 51.9C225.64 51.96 225.69 52.01 225.74 52.05C226.24 52.63 225.29 52.84 225.38 53.4C225.48 54.01 224.45 54.24 224.45 53.68C224.45 53.12 221.85 52.93 221.31 53.54C220.77 54.15 220.38 54.62 219.74 54.06C219.1 53.5 217.24 54.2 214.84 54.29C212.43 54.39 207.48 54.57 206.26 55C205.03 55.42 204 57.06 205.12 58.14C206.26 59.22 205.17 59.69 205.17 60.39C205.17 61.09 208.12 62.55 209.68 62.69C211.26 62.83 212.53 64.66 211.6 65.78C210.67 66.91 207.82 65.45 205.96 64.05C204.09 62.64 199.78 62.08 198.35 62.17C196.93 62.26 197.77 60.95 195.95 61C194.13 61.05 192.62 62.59 193.84 62.59C195.07 62.59 195.85 62.5 195.22 63.06C194.58 63.62 195.56 63.49 197.03 64.09C198.5 64.7 195.81 65.55 194.28 64.56C192.77 63.58 191.15 64.51 190.71 65.27C190.26 66.02 192.47 68.17 195.12 68.55C197.77 68.92 196.88 69.72 198.11 70.14C199.34 70.57 198.46 71.04 197.62 71.08C196.78 71.13 195.12 69.86 193.79 69.21C192.47 68.55 188.89 69.49 188.16 68.74C187.42 67.98 188.64 67.24 187.96 66.67C187.27 66.11 187.86 64.84 188.75 63.53C189.63 62.22 188.6 59.96 187.32 59.59C186.05 59.22 186.15 60.48 186.44 60.85C186.73 61.23 186.59 63.01 185.6 64.19C184.62 65.36 181.63 65.36 181.63 66.16C181.63 66.95 179.62 67.57 180.31 68.13C181 68.69 183.69 71.6 184.09 72.49C184.48 73.38 181.68 76.19 182.12 77.84C182.56 79.48 181.73 80.23 182.27 81.02C182.81 81.82 184.03 81.12 184.82 81.45C185.61 81.78 186.88 80.98 188.7 80.65C190.51 80.32 193.85 82.15 195.07 82.72C196.3 83.28 195.66 84.21 196.3 85.15C196.94 86.09 194.83 86.09 194.78 87.5C194.73 88.91 198.45 89.51 198.6 89.94C198.75 90.36 195.95 90.03 194.87 89.66C193.8 89.28 193.7 87.92 193.35 87.64C193.01 87.36 194.09 86.23 194.18 85.34C194.29 84.45 192.96 83.93 192.52 83.33C192.08 82.72 191.29 81.82 190.41 82.01C189.53 82.2 186.29 82.48 185.31 83.33C184.33 84.17 185.46 86.56 186 87.73C186.54 88.91 183.15 90.55 183.25 91.49C183.35 92.42 182.22 92.84 180.75 93.6C179.28 94.34 177.66 94.91 177.7 96.13C177.76 97.35 175.75 96.69 174.72 96.13C173.69 95.57 172.36 96.46 170.89 96.41C169.42 96.36 169.42 95.19 168.24 95.61C167.07 96.03 166.28 95.1 166.62 94.25C166.97 93.41 168.29 94.07 168.39 94.67C168.49 95.28 169.32 95 170.3 94.49C171.28 93.97 170.79 95.15 172.22 95.24C173.64 95.33 172.85 94.54 173.93 94.63C175.01 94.72 175.06 94.4 174.72 93.88C174.37 93.36 175.5 92.99 176.19 92.71C176.96 92.39 176.58 91.35 177.22 91.02C177.85 90.69 177.41 90.03 178.1 89.99C178.79 89.94 179.08 88.95 179.72 88.95C180.35 88.95 180.7 87.97 180.31 87.45C179.91 86.94 180.55 85.53 181.19 85.34C181.83 85.16 181.88 84.59 181.29 84.17C180.7 83.75 178.54 82.34 178.69 81.45C178.84 80.56 178.3 78.92 178.59 78.22C178.88 77.51 178.64 76.06 178.54 75.21C178.44 74.37 179.08 73.43 179.38 71.88C179.67 70.34 177.66 68.69 176.68 68.27C175.7 67.85 176.33 67 177.76 65.88C179.18 64.75 179.28 61.24 179.18 60.49C179.08 59.74 176.18 59.08 175.06 59.17C173.93 59.27 169.76 59.08 168.73 58.89C167.7 58.7 167.36 59.74 166.87 60.67C166.38 61.61 165.3 63.06 164.66 65.17C164.02 67.29 161.42 67.94 160.25 68.41C159.07 68.88 158.33 70.43 158.87 71.18C159.41 71.93 160.2 71.32 160.74 71.6C161.28 71.88 160.69 73.85 160.34 74.13C160 74.41 160.98 75.12 160.15 75.63C159.31 76.15 158.53 77.23 159.02 77.79C159.51 78.35 161.91 78.64 162.94 79.2C163.97 79.76 163.58 80.79 164.37 81.78C165.15 82.76 165.98 82.16 166.38 82.76C166.77 83.37 164.96 85.81 164.32 85.9C163.68 86 161.08 83.42 160.29 82.86C159.51 82.3 156.47 81.4 154.95 80.65C153.43 79.9 152.2 80 150.53 78.92C148.87 77.84 147.45 77.32 144.4 77.37C141.36 77.42 139.4 76.71 138.37 76.85C137.34 77 137.73 75.87 135.92 75.12C134.1 74.37 132.92 73.34 131.89 73.85C130.87 74.37 131.26 76.25 132.83 76.48C134.39 76.71 133.61 77.51 135.28 77.42C136.95 77.33 137.44 77.89 137.39 78.87C137.34 79.86 138.17 80.84 138.91 81.5C139.64 82.16 139.2 83.23 137.88 83.23C136.55 83.23 135.04 83.42 135.62 84.31C136.21 85.21 135.23 85.44 133.91 84.97C132.58 84.5 133.37 83.61 133.91 83.09C134.45 82.58 132.73 81.92 131.89 81.64C131.06 81.36 127.73 83.71 126.8 84.08C125.86 84.45 123.56 83.52 121.2 84.08C118.85 84.64 119 86.42 118.11 86.24C117.23 86.05 114.63 86.47 113.65 85.91C112.67 85.35 113.46 85.02 114.48 85.07C115.52 85.11 115.86 84.78 115.27 84.13C114.68 83.47 116.06 82.44 116.01 81.97C115.96 81.5 112.13 82.72 111.49 83.24C110.85 83.75 111.54 84.69 110.85 85.02C110.17 85.35 110.17 84.46 109.38 84.17C108.6 83.89 102.86 85.16 101.78 86.33C100.7 87.5 98.59 87.55 98.59 88.21C98.59 88.87 95.99 88.82 94.96 89.29C93.93 89.75 94.62 91.68 94.23 92.62C93.84 93.56 89.81 93.27 88.59 93.32C87.36 93.37 86.92 91.07 85.94 90.93C84.96 90.78 85.55 89.47 85.84 88.91C86.14 88.35 86.92 88.82 88.15 88.07C89.37 87.32 90.6 88.44 91.09 87.92C91.58 87.41 89.23 86.05 89.08 84.88C88.93 83.7 86.33 83.37 84.86 83.75C83.39 84.13 81.77 83.8 80.74 83.33C79.71 82.86 79.81 84.17 81.33 84.55C82.85 84.92 82.06 86.05 82.31 86.75C82.56 87.45 81.92 89.05 81.04 90.27C80.15 91.49 80.79 91.44 82.12 91.39C83.44 91.35 83.34 92.99 83.34 94.21C83.34 95.42 82.31 95.75 82.31 96.65C82.31 97.54 81.23 96.22 80.89 96.6C80.55 96.97 80.1 96.41 79.91 95.66C79.71 94.91 77.7 95.33 76.57 95.05C75.44 94.77 75 95.24 74.47 96.03C73.92 96.83 72.35 97.16 71.52 97.25C70.59 97.36 69.22 98.9 68.33 99.46C67.45 100.02 67.3 101.1 68.53 102.22C69.76 103.35 70 104.1 69.9 104.71C69.8 105.32 66.47 105.13 65.93 104.47C65.39 103.82 63.23 103.59 62.5 103.72C61.76 103.86 59.75 101.61 58.72 101.57C57.69 101.52 57.05 102.74 56.71 103.35C56.37 103.96 57.2 104.15 57.69 105.18C58.18 106.21 60 106.26 60.93 106.26C61.86 106.26 61.51 107.62 61.22 108.18C60.93 108.74 59.21 109.17 58.72 108.55C58.23 107.95 56.17 108.55 56.12 107.8C56.07 107.05 54.6 105.93 53.08 106.16C51.56 106.4 51.26 105.46 51.36 104.33C51.46 103.21 50.53 102.55 50.58 102.04C50.63 101.52 49.89 100.49 50.68 99.97C51.46 99.46 50.87 98.66 50.92 97.96C50.97 97.25 49.6 96.17 48.37 96.17C47.15 96.17 47.39 95 46.36 94.76C45.33 94.53 43.27 92.89 43.12 92.19C42.98 91.48 41.41 91.39 41.95 91.15C42.49 90.92 43.71 91.25 44.59 92.09C45.48 92.93 46.9 93.69 49.2 93.97C51.51 94.25 52.44 95.28 54.99 95.7C57.54 96.13 59.06 96.41 62.74 96.92C66.42 97.44 71.32 93.87 72.35 92.89C73.38 91.9 72.06 89.89 72.06 89.14C72.06 88.38 70.39 88.29 70.15 87.73C69.9 87.17 68.82 86.13 67.4 86.13C65.98 86.13 65.78 84.59 64.65 84.68C63.52 84.77 62.74 84.21 59.8 82.33C56.85 80.46 52.78 79.1 52.05 79.42C51.31 79.75 50.82 79.94 50.33 79.24C49.84 78.54 48.72 78.63 47.93 79.19C47.14 79.75 46.36 78.68 44.89 79C43.41 79.33 42.63 78.4 43.02 77.97C43.41 77.55 45.58 77.93 45.48 77.22C45.38 76.52 44.59 77.22 43.27 76.38C41.94 75.54 41.21 76.1 40.91 76.8C40.62 77.5 39.59 77.32 38.9 76.71C38.84 76.65 38.76 76.6 38.68 76.56C38.45 77.73 37.73 77.85 36.99 77.69C36.11 77.5 35.23 78.91 34.25 78.91C33.26 78.91 32.19 79.94 31.99 80.79C31.79 81.63 30.71 81.16 30.71 81.72C30.71 82.29 30.71 82.85 30.22 83.41C29.73 83.98 30.22 84.26 30.71 85.19C31.2 86.13 32.28 86.04 32.77 86.32C33.26 86.6 35.13 88.1 35.13 88.66C35.13 89.23 33.66 90.64 33.07 91.01C32.48 91.38 31.69 92.32 32.08 92.89C32.48 93.45 34.15 95.8 35.22 97.67C36.3 99.55 34.83 98.7 34.15 99.54C33.46 100.39 34.44 101.42 34.63 101.99C34.83 102.55 33.75 102.45 33.85 102.92C33.95 103.39 35.42 103.58 35.52 103.95C35.62 104.33 34.54 104.8 35.03 105.55C35.52 106.3 36.69 106.3 36.79 107.24C36.89 108.18 34.63 108.27 34.73 109.02C34.83 109.77 37.67 110.71 38.95 112.12C40.23 113.52 40.13 113.9 39.83 114.65C39.24 116.16 35.72 117.46 34.93 119.15C34.14 120.84 31.2 121.78 29.83 123.09C29.27 123.63 28.71 124.35 28.25 125.02C28.83 124.88 29.29 124.71 29.63 124.54C30.42 124.17 30.95 126 31.74 126.61C32.53 127.22 34.1 126.65 34.63 127.22C35.17 127.78 34.19 127.83 33.07 127.64C31.94 127.45 31.64 128.11 29.88 128.67C28.56 129.09 28.69 129.54 28.25 129.89C29.04 131 27.98 131.14 27.57 131.98C27.13 132.89 26.54 133.03 26.47 133.59C26.39 134.16 26.62 134.58 26.69 135.42C26.76 136.27 26.91 136.41 27.42 137.11C27.94 137.82 26.98 137.82 26.54 138.17C26.1 138.52 26.39 139.29 26.98 139.85C27.57 140.42 27.57 141.12 27.35 141.61C27.13 142.1 27.87 142.95 28.38 143.44C28.9 143.93 28.83 145.27 29.26 145.62C29.71 145.98 30.22 146.33 31.03 146.11C31.84 145.9 32.35 146.26 32.72 146.89C33.09 147.52 33.68 147.24 34.49 146.89C35.3 146.54 37.14 147.52 37.58 147.73C38.02 147.94 37.8 149.14 37.87 149.91C37.95 150.69 37.43 151.67 38.24 152.17C39.05 152.66 38.83 153.78 39.79 154.13C40.74 154.49 41.11 155.75 41.7 155.89C42.29 156.03 43.39 156.88 43.54 157.51C43.68 158.14 42.51 158.71 41.84 158.99C41.18 159.27 39.93 158.14 39.49 158.64C39.05 159.13 39.64 160.04 40 161.59C40.37 163.14 40.67 163.28 41.41 163.28C42.14 163.28 42.43 162.79 42.95 162.5C43.46 162.22 44.64 162.64 45.16 162.44C45.67 162.22 47.51 162.15 47.88 162.72C48.25 163.28 48.61 164.62 48.32 165.11C48.02 165.6 48.69 166.17 49.06 166.87C49.42 167.57 50.97 167.22 51.48 167.43C52 167.64 53.17 169.19 52.95 169.89C52.73 170.6 53.69 170.74 54.21 170.53C54.72 170.31 55.24 170.88 55.82 171.23C56.41 171.58 56.93 171.44 57.51 171.09C58.1 170.74 59.06 170.46 59.35 170.95C59.65 171.44 60.83 172.36 60.83 172.64C60.83 172.92 62.66 172.64 63.55 173.06C64.43 173.48 65.39 173.27 66.34 173.76C67.3 174.25 68.18 174.32 68.25 174.89C68.33 175.45 67.3 175.94 67.3 176.22C67.3 176.51 68.11 176.72 68.11 177.14C68.11 177.56 67.08 177.56 66.93 177.91C66.78 178.27 67.52 178.76 67.66 179.11C67.81 179.46 67.08 180.66 67.08 181.01C67.08 181.36 64.87 180.94 64.35 180.94C63.84 180.94 62.29 182.56 61.78 182.62C61.34 182.69 61.55 183.46 61.71 184.13C63.29 183.84 64.91 183.72 65.09 184.06C65.39 184.62 61.66 186.12 60.97 186.35C60.28 186.59 62.3 187.57 62.25 188.14C62.2 188.7 60.08 188.84 60.28 189.96C60.48 191.09 59.6 191.33 58.47 191.33C57.34 191.33 57.05 191.98 57.59 192.08C58.13 192.17 58.08 193.58 60.19 194.09C62.29 194.61 64.55 196.49 66.37 198.36C66.62 198.62 66.91 198.83 67.23 199.01C67.75 198.71 68.21 198.49 68.47 198.45C69.5 198.31 71.42 198.88 72.45 199.58C73.48 200.28 77.15 199.44 77.59 200C78.04 200.56 78.92 201.27 79.66 201.27C80.39 201.27 81.13 202.68 81.72 202.25C82.3 201.83 84.51 201.83 85.1 201.83C85.69 201.83 85.69 202.25 86.28 202.25C86.87 202.25 86.87 204.36 87.31 204.22C87.75 204.08 89.37 205.49 90.4 205.63C91.43 205.77 92.46 207.46 92.9 207.32C93.34 207.18 94.08 208.02 94.37 207.32C94.65 206.65 96.1 206.98 96.51 205.82C94.65 203.64 92.65 201.22 92.7 200.28C92.8 198.69 93.49 197.66 91.43 195.97C89.37 194.28 91.63 193.16 93.1 191.37C94.41 189.78 97.21 189.08 98.98 187.95C98.62 187.71 98.25 187.49 97.9 187.34C96.58 186.78 96.14 186.21 97.17 185.93C98.2 185.65 97.76 185.09 96.73 183.96C95.7 182.84 95.25 181.71 94.67 181.71C94.08 181.71 93.19 181.57 92.31 181.85C91.43 182.13 91.58 181.15 91.72 180.16C91.87 179.18 90.11 179.32 89.81 178.89C89.52 178.47 90.25 177.07 90.55 176.93C90.84 176.78 91.72 176.36 91.72 175.94C91.72 175.52 90.11 175.38 90.69 174.39C91.28 173.41 92.46 173.41 92.46 172.42C92.46 171.44 93.34 170.6 94.37 171.3C95.4 172 95.84 173.83 97.02 173.41C98.2 172.99 97.46 172 97.31 171.44C97.17 170.88 96.87 170.03 98.2 169.75C99.52 169.47 98.93 168.2 99.96 168.2C100.99 168.2 102.9 166.94 103.49 166.66C104.08 166.37 105.41 165.67 105.99 165.95C106.58 166.24 107.32 166.94 107.76 165.95C108.2 164.97 109.97 165.39 110.11 165.95C110.26 166.52 113.06 166.52 113.94 167.08C114.82 167.64 116.73 168.77 116.73 169.33C116.73 169.89 117.62 170.74 117.62 169.75C117.62 168.77 118.35 169.05 119.53 169.75C120.71 170.46 122.33 170.18 122.62 169.47C122.91 168.77 125.12 167.93 125.86 168.49C126.59 169.05 126.89 169.47 127.77 168.63C128.65 167.78 130.71 167.93 131.01 168.77C131.3 169.61 132.33 169.75 133.21 169.75C134.1 169.75 134.24 171.02 134.83 170.74C135.42 170.46 135.27 169.05 136.01 169.19C136.75 169.33 137.34 170.18 138.51 170.18C139.69 170.18 140.57 169.89 140.57 169.05C140.57 168.21 140.42 166.8 139.69 166.8C138.95 166.8 138.22 166.1 137.34 166.1C136.45 166.1 135.57 164.69 136.45 164.41C137.34 164.13 138.81 163.42 138.51 162.72C138.22 162.02 137.92 160.61 139.1 160.47C140.28 160.33 142.78 160.33 142.63 159.91C142.48 159.48 140.13 159.2 139.69 158.5C139.25 157.79 139.1 156.1 139.54 155.83C139.98 155.54 141.45 155.96 142.34 155.68C143.22 155.4 145.13 156.11 146.31 155.26C147.49 154.42 149.99 154.27 151.31 154.27C152.63 154.27 153.67 153.43 154.7 153.29C155.73 153.15 158.67 152.73 159.4 152.45C160.14 152.17 164.11 151.6 164.26 150.9C164.41 150.2 167.57 149.63 168.38 149.99C169.19 150.34 170.22 150.62 170.95 150.34C171.69 150.06 173.24 150.83 173.09 151.6C172.94 152.38 173.75 153.22 173.68 153.85C173.6 154.49 172.87 154.7 173.31 155.19C173.75 155.68 175.74 155.33 176.32 154.7C176.91 154.07 177.58 154.98 177.58 155.47C177.58 155.97 178.53 156.32 178.53 155.68C178.53 155.05 179.71 155.47 180.08 155.9C180.45 156.32 181.84 155.41 181.84 156.11C181.84 156.81 179.78 157.37 180.67 158.15C181.55 158.92 182.06 157.23 183.17 157.58C184.27 157.94 185.74 156.39 186.77 156.18C187.8 155.96 188.91 155.05 189.79 154.56C190.67 154.07 192.58 154.21 192 154.77C191.41 155.33 190.75 156.39 192.95 157.16C195.16 157.94 197.66 162.02 199.06 164.06C200.45 166.1 201.78 169.76 202.52 169.76C203.25 169.76 203.47 167.93 204.43 167.72C205.38 167.5 205.97 169.26 207 169.47C208.03 169.68 209.43 170.25 210.24 169.96C211.05 169.68 212.89 168.7 213.55 169.05C214.21 169.4 215.1 169.4 215.68 170.74C216.27 172.08 217.16 172.36 217.74 172.36C218.33 172.36 218.46 172.99 218.46 173.55C218.46 174.11 219.53 174.87 220.12 174.87C220.71 174.87 222.28 174.68 222.77 174.4C223.26 174.11 223.85 173.84 223.95 174.49C224.05 175.15 224.93 176.18 225.52 176.18C226.11 176.18 227.28 176.65 227.38 176.18C227.48 175.71 229.05 175.43 229.64 175.34C230.23 175.24 232.29 174.87 232.68 174.02C233.07 173.18 234.74 173.18 235.23 172.61C235.72 172.05 237.09 171.77 237.39 171.21C237.68 170.64 239.45 170.74 239.65 170.27C239.84 169.8 241.31 169.71 242 169.89C242.68 170.08 246.12 170.74 246.61 170.65C247.1 170.55 247.2 172.33 247.69 172.43C248.18 172.52 249.94 173.84 250.43 173.46C250.92 173.08 252.1 172.71 253.09 173.27C254.07 173.83 255.05 174.59 255.44 173.93C255.83 173.27 257.89 172.99 258.19 172.61C258.48 172.24 258.77 171.11 258.28 170.74C257.79 170.37 257.3 168.86 257.11 168.11C256.91 167.36 258.28 167.18 258.48 166.52C258.68 165.86 259.85 165.77 260.25 165.39C260.64 165.02 260.74 164.18 261.43 164.36C262.11 164.55 263.58 165.02 263.87 165.3C264.17 165.58 265.25 165.77 265.93 165.77C266.62 165.77 267.7 166.33 268.39 166.71C269.07 167.08 271.23 167.08 271.62 167.65C272.02 168.21 271.52 169.8 272.02 170.37C272.51 170.93 273.68 172.15 274.07 171.87C274.47 171.59 276.33 172.81 277.02 172.71C277.7 172.62 278.78 171.59 279.37 171.59C279.96 171.59 281.82 171.12 282.41 171.21C283 171.3 285.16 172.05 285.45 171.87C285.75 171.68 287.71 171.96 288.01 172.52C288.3 173.09 290.75 173.09 290.75 173.74C290.75 174.4 292.12 174.77 292.51 175.52C292.91 176.27 296.15 175.81 296.74 176.27C297.32 176.74 301.05 176.65 301.15 176.27C301.25 175.9 304.78 175.71 305.46 175.24C306.15 174.77 308.01 174.96 308.11 174.3C308.21 173.65 309.98 173.18 310.76 172.62C311.55 172.05 314.68 172.15 314.88 172.8C315.07 173.46 316.94 173.65 317.72 173.37C318.51 173.09 320.57 173.46 320.86 174.12C321.16 174.77 323.51 175.15 324.1 174.96C324.69 174.77 326.55 173.46 327.24 173.37C327.93 173.27 328.91 172.61 328.71 171.96C328.52 171.3 330.09 169.43 330.28 168.68C330.48 167.92 331.85 165.86 332.34 165.67C332.83 165.49 333.91 164.64 333.81 164.08C333.71 163.52 333.42 161.83 332.83 161.83C332.24 161.83 331.16 161.92 332.54 160.14C333.91 158.35 336.36 158.83 336.76 158.83C337.15 158.83 340.29 158.08 341.66 158.45C343.03 158.83 343.91 158.27 345.39 159.02C346.86 159.77 348.92 159.48 349.41 160.14C349.9 160.8 351.86 161.36 351.57 162.49C351.27 163.61 352.65 162.95 353.14 165.39C353.63 167.83 354.8 168.02 355.1 169.15C355.39 170.27 356.96 172.34 356.77 172.99C356.57 173.65 356.37 174.68 358.04 174.77C359.71 174.87 360.89 176.09 361.28 175.9C361.67 175.71 363.63 176.37 364.61 177.31C365.6 178.25 367.06 177.78 366.97 178.81C366.87 179.84 367.76 180.68 367.65 181.53C367.55 182.37 369.52 182.94 370.89 182.75C372.26 182.56 373.25 183.22 373.83 182.09C374.42 180.97 376.38 181.43 377.07 180.97C377.76 180.5 379.82 179.93 379.72 181.62C379.62 183.31 380.8 183.69 379.82 184.25C378.84 184.81 378.35 187.25 378.05 188.28C377.76 189.31 376.28 189.6 376.09 190.72C375.89 191.85 374.52 191.94 374.52 192.79C374.52 193.63 372.56 193.44 371.58 192.79C370.6 192.13 369.62 194.01 368.83 194.01C368.04 194.01 368.14 195.6 368.34 196.26C368.54 196.91 368.05 197.76 368.54 198.88C368.8 199.49 368.64 200.63 368.77 201.92C369.97 201.09 371.05 200.48 371.53 200.48C372.76 200.48 373.98 202.5 375.35 202.54C376.73 202.59 382.96 198.6 383.01 197.95C383.06 197.29 386.68 193.96 388.4 192.22C390.11 190.49 392.37 187.96 393.26 185.99C393.8 184.77 396.2 182.42 396.79 181.48C397.37 180.54 397.77 180.45 398.85 178.25C399.93 176.04 399.93 170.27 400.27 169.9C400.61 169.52 400.42 168.54 400.91 167.93C401.4 167.32 401.15 166.48 402.13 165.68C403.12 164.88 402.92 164.18 402.67 163.57C402.43 162.96 402.72 161.6 402.48 161.17C402.23 160.75 402.28 160.56 402.87 160.24C403.46 159.91 402.48 159.06 401.64 158.69C400.81 158.31 399.73 157.99 399.63 157.09C399.53 156.2 398.11 155.12 397.03 155.22C395.95 155.31 393.94 154.66 394.18 155.31C394.43 155.97 394.09 156.53 393.55 156.39C393.01 156.25 392.76 156.67 392.13 157.61C391.49 158.55 389.23 158.64 390.26 157.75C391.29 156.86 389.92 156.81 390.11 155.87C390.31 154.94 391.15 154 390.02 154.61C388.89 155.22 388.89 156.67 387.96 156.86C387.03 157.05 387.32 154.33 387.56 153.62C387.81 152.92 385.85 153.67 383.79 153.53C381.73 153.39 382.27 152.03 383.93 151.18C385.61 150.34 385.31 149.54 386.14 149.21C386.98 148.89 389.14 147.52 390.41 146.82C391.69 146.12 391.93 145.32 392.23 144.52C392.52 143.73 394.88 142.74 396.98 141.1C399.09 139.46 400.12 138.52 400.61 137.53C401.1 136.55 404.24 135.33 404.29 134.58C404.34 133.83 408.02 131.95 410.52 131.48C413.02 131.02 416.99 131.62 417.73 132.33C418.47 133.03 419.01 132.75 419.45 132.28C419.89 131.81 420.87 132.05 422.54 132.24C424.2 132.42 424.6 131.48 425.72 131.81C426.85 132.14 427.78 132.33 428.47 131.06C429.16 129.79 432.4 130.03 433.13 130.55C433.86 131.06 434.46 131.77 435.63 131.02C436.81 130.27 436.81 132 437.93 132.14C439.07 132.28 438.33 133.22 437.35 133.13C436.37 133.03 435.14 133.59 436.27 134.21C437.4 134.82 438.72 133.64 439.61 133.74C440.49 133.83 441.86 133.92 443.09 133.17C444.31 132.42 444.66 133.78 445.44 133.13C446.23 132.47 447.99 132.28 448.87 132.33C449.76 132.38 449.02 131.35 447.55 131.35C446.08 131.35 446.13 130.6 447.31 128.67C448.48 126.75 450.74 125.72 452.16 124.55C453.58 123.38 454.61 123.94 454.61 123.18C454.61 122.43 455.3 120.33 456.38 120.28C457.45 120.23 460.15 120.7 461.82 119.81C463.49 118.92 463.34 120.47 464.03 120.7C464.72 120.93 465.65 119.34 466.43 119.81C467.22 120.28 465.26 121.41 464.81 122.76C464.37 124.12 465.84 123.61 466.68 123.98C467.51 124.36 465.6 124.92 465.8 125.29C465.99 125.67 467.66 125.67 469.82 123.61C471.98 121.54 473.93 120.98 475.31 121.12C476.68 121.27 475.9 119.95 476 118.03C476.1 116.1 480.31 115.54 481.68 116.1C483.06 116.67 482.96 117.18 481.63 116.85C480.31 116.53 479.09 117.65 479.13 119.25C479.18 120.84 477.95 121.36 478.6 121.97C479.23 122.58 477.66 122.72 477.61 123.38C477.57 124.03 477.61 124.55 476.63 124.83C475.65 125.11 472.36 125.44 472.27 126.66C472.17 127.88 470.4 128.02 469.57 129.52C468.74 131.02 465.55 131.91 463.44 134.91C461.33 137.91 458 137.91 458 138.48C458 139.04 455.69 138.99 454.9 139.09C454.12 139.18 455.64 141.01 453.78 142.93C451.91 144.85 450.68 147.53 450.73 150.2C450.78 152.88 451.71 160.57 452.55 161.93C453.38 163.29 452.89 166.62 453.58 167.32C454.27 168.03 454.02 169.2 454.46 169.62C454.9 170.04 456.72 167.75 457.94 166.76C459.17 165.78 458.78 165.45 459.61 164.93C460.45 164.42 460.1 162.26 460.35 161.7C460.59 161.13 462.11 160.85 462.6 160.24C463.09 159.63 464.37 160.01 465.06 159.77C465.74 159.54 465 157.99 464.76 157.1C464.51 156.21 466.77 154.99 467.95 154.19C469.12 153.39 470.6 154.71 471.92 153.53C473.24 152.36 471.82 151 471.33 150.39C470.84 149.78 472.66 146.83 473.69 146.55C474.72 146.27 475.26 147.25 476.24 146.41C477.22 145.56 475.35 144.2 474.67 144.3C473.98 144.39 473.74 141.9 475.35 140.73C476.97 139.56 476.34 139.32 475.26 139.04C474.18 138.76 473.98 139.14 473.15 139.18C472.31 139.23 471.48 137.54 472.76 135.9C474.03 134.26 475.26 134.45 475.55 133.09C475.85 131.73 477.61 129.8 478.05 129.1C478.5 128.4 480.26 129.1 480.95 128.96C481.63 128.82 481.39 130.23 482.22 129.52C483.06 128.82 484.43 126.47 485.56 126.47C486.68 126.47 485.95 128.21 486.25 129.24C486.54 130.27 487.17 128.96 489.33 127.55C491.49 126.15 496.2 126.28 497.62 126.94C499.05 127.6 499.29 129.15 500.08 128.96C501.27 128.67 500.27 127.41 501.45 127.08C502.63 126.76 504.68 125.58 506.26 124.5C507.82 123.43 507.38 124.22 508.22 123.24C509.05 122.25 509.88 122.68 510.13 122.02C510.37 121.36 512.63 120.28 515.72 119.62C518.81 118.97 522.83 117 522.64 116.39C522.44 115.78 523.81 115.5 523.96 116.11C524.11 116.72 525.28 116.48 526.9 116.81C528.52 117.14 529.26 117.75 530.53 116.53C531.81 115.31 530.38 114.89 530.43 113.95C530.48 113.01 528.22 112.03 528.52 111.04C528.81 110.06 526.85 107.43 526.27 107.95C525.68 108.46 524.3 107.52 524.3 106.77C524.3 106.02 524.2 105.13 523.27 105.69C522.34 106.26 520.77 105.98 520.48 105.13C520.18 104.29 522.3 103.68 523.77 104.24C525.24 104.8 524.8 105.37 525.53 105.79C526.27 106.21 528.27 106.02 529.3 105.56C530.34 105.09 533.23 104.19 533.72 103.4C534.21 102.6 533.67 102.22 534.65 101.76C535.64 101.29 534.9 100.3 534.06 99.88C533.23 99.46 533.43 98.33 534.31 98.33C535.19 98.33 534.95 97.35 535.53 97.3C536.12 97.25 536.22 97.72 537.3 97.21C538.38 96.69 537.35 98 536.86 98.9C536.37 99.78 537.89 100.54 538.03 101.05C538.18 101.57 540.29 101.76 541.47 101.15C542.65 100.54 546.42 101.9 546.67 102.79C546.91 103.68 547.45 104.76 549.02 105.51C550.59 106.26 552.01 105.93 552.31 106.64C552.6 107.34 553.19 107.71 554.07 107.53C554.95 107.34 555.44 108.27 556.08 107.71C556.72 107.15 557.06 108.04 557.9 107.34C558.73 106.64 556.08 106.17 556.43 105.6C556.77 105.04 557.31 106.02 558.04 105.98C558.78 105.93 557.85 104.57 558.39 104.43C558.93 104.29 558.49 101.48 557.9 101.29C557.31 101.1 557.8 100.11 558.93 100.91C560.05 101.71 561.82 101.66 562.65 101.66C563.49 101.66 562.7 100.91 561.87 100.77C561.03 100.63 562.02 99.98 562.6 100.49C563.19 101.01 564.32 101.24 564.42 100.68C564.52 100.12 565.11 98.9 566.14 98.94C567.18 98.99 567.52 98.42 566.54 98.09ZM293.01 159.63C290.22 162.02 284.63 162.58 284.63 164.55C284.63 166.52 277.86 167.51 277.27 166.66C276.76 165.92 282.27 165.68 283.6 162.86C284.92 160.05 289.95 158.6 292.43 154.84C294.19 152.17 295.67 148.09 296.69 148.37C297.72 148.65 295.81 157.23 293.01 159.63ZM305.47 49.46C305.08 50.21 302.95 50.26 303.51 50.96C304.5 52.18 309.4 51.52 309.5 50.02C309.59 48.52 305.87 48.71 305.47 49.46ZM126.85 3.12C129.21 3.12 128.52 1.71 130.09 1.9C131.66 2.09 133.72 2 132.93 1.06C132.15 0.12 126.46 0.49 127.05 1.25C127.64 2 122.44 1.72 122.54 2C122.73 2.56 124.5 3.12 126.85 3.12ZM114.69 9.41C114.69 7.9 109.58 9.56 110.57 9.87C111.45 10.16 114.69 10.91 114.69 9.41ZM127.34 8.19C127.64 8.93 126.85 9.03 124.89 9.03C122.93 9.03 121.9 10.09 122.93 10.91C124.1 11.84 129.3 11.47 130.19 10.34C131.07 9.22 133.33 10.16 133.72 9.03C134.11 7.9 127.05 7.43 127.34 8.19ZM144.12 6.4C144.8 5.56 142.84 5.56 142.64 4.71C142.45 3.87 136.95 3.68 137.25 4.62C137.54 5.56 133.45 6.58 134.7 7.53C137.05 9.31 143.43 7.25 144.12 6.4ZM128.52 4.9C128.81 2.93 125.38 4.53 122.83 3.5C120.28 2.46 118.78 2.54 120.47 3.96C121.26 4.62 116.11 5.13 116.94 5.93C118.81 7.72 128.22 6.87 128.52 4.9ZM113.91 56.96C114 57.9 113.41 58.56 111.55 58.56C109.68 58.56 112.43 59.68 112.63 60.71C112.82 61.75 110.76 61 110.67 62.59C110.57 64.18 107.03 62.59 106.55 64.65C106.06 66.72 108.31 66.44 109.88 66.53C111.45 66.63 109.29 68.03 110.47 68.87C111.65 69.72 112.53 69.44 111.74 67.84C110.96 66.25 115.86 68.41 114.39 69.63C112.92 70.85 116.75 71.78 118.61 71.88C120.48 71.97 127.09 73.35 127.24 71.88C127.34 70.94 124.79 70.09 122.73 68.03C120.67 65.97 119.2 62.59 121.56 61.18C123.91 59.78 121.85 59.12 124.2 57.52C126.56 55.93 125.18 54.43 127.14 54.24C129.11 54.05 126.95 52.36 128.91 52.08C130.87 51.8 131.27 49.74 130.97 48.99C130.67 48.24 133.03 49.08 134.11 47.96C135.18 46.83 137.74 47.58 138.52 45.99C139.31 44.39 150.59 40.73 156.96 39.33C163.34 37.92 167.75 35.39 165.5 33.7C163.24 32.01 156.87 34.35 155.29 35.58C153.72 36.79 151.47 35.95 149.9 36.79C148.33 37.64 145 38.39 143.33 37.35C141.66 36.32 139.7 38.57 138.42 38.48C137.15 38.39 135.68 39.7 134.31 39.61C132.93 39.51 130.18 40.64 129.99 41.39C129.79 42.14 127.44 41.95 127.44 42.89C127.44 43.83 125.58 44.67 124.59 43.83C123.61 42.98 122.43 44.77 123.81 45.99C125.18 47.21 121.26 47.3 121.94 48.05C122.63 48.8 120.47 49.27 120.96 50.11C121.45 50.96 119.59 51.24 118.12 51.52C116.65 51.8 115.86 53.68 117.73 53.77C119.59 53.87 116.65 54.15 116.85 55.56C117.04 56.96 113.81 56.02 113.91 56.96Z" fill="#B3B7BC" fill-opacity="1.000000" fill-rule="nonzero"/>
	<path id="Vector" d="M7.35 149.71C7.06 149.31 6.14 149.46 5.34 149.53C5.52 149.64 5.71 149.78 5.85 150.02C6.3 150.77 4.09 150.86 4.78 151.75C5.46 152.64 3.21 152.69 3.21 151.75C3.21 150.81 0.85 151.28 0.95 151.89C0.99 152.11 0.92 152.38 0.75 152.64C1.4 152.86 2.14 153.12 2.43 153.23C2.88 153.39 8.76 153.98 11.06 153.58C10.93 153.17 11.18 151.94 11.18 151.47C11.18 150.91 9.78 150.2 9.34 150.41C8.9 150.62 7.72 150.2 7.35 149.71ZM152.94 3.21C150.98 2.84 150.69 4.34 149.71 4.25C148.72 4.15 145.02 4.84 145.78 5.65C146.67 6.59 149.41 6.12 151.28 5.93C155 5.56 154.9 3.59 152.94 3.21ZM175.31 56.96C175.7 56.31 173.94 55.56 171.68 55.56C169.42 55.56 169.1 57.92 170.21 58.09C171.48 58.28 174.92 57.62 175.31 56.96ZM241.91 11.37C239.95 11.37 238.26 12.01 239.56 12.5C240.54 12.88 240.44 13.91 242.5 14.38C244.56 14.84 246.62 13.25 246.42 12.12C246.22 11 253.58 9.97 255.55 9.5C257.51 9.03 254.27 7.06 256.43 6.87C258.59 6.68 257.7 5.75 255.05 5.37C252.41 4.99 253.49 2.84 252.6 2.09C251.72 1.34 251.23 3.02 247.8 3.68C244.36 4.34 242.69 5.18 244.07 5.84C245.44 6.5 244.07 8.09 242.6 8C241.13 7.9 240.83 9.41 242.69 10.16C244.56 10.91 243.87 11.37 241.91 11.37ZM245.64 15.6C246.43 16.25 247.11 16.07 248.09 16.25C249.07 16.44 249.56 18.79 251.33 18.41C253.1 18.04 257.9 20.29 260.75 20.29C263.59 20.29 263.88 18.04 263 17.94C262.12 17.85 262.91 16.53 264.47 14.38C266.04 12.22 259.57 10.63 259.57 12.31C259.57 14 257.7 11.94 257.12 10.91C256.53 9.87 247.9 11.75 247.9 12.78C247.9 13.81 244.74 14.84 245.64 15.6ZM201.4 58.46C201.2 56.96 197.6 58.9 198.85 59.5C200.42 60.25 201.6 59.96 201.4 58.46ZM235.73 4.06C236.32 4.53 239.75 4.9 240.15 3.5C240.54 2.09 234.03 2.7 235.73 4.06ZM533.53 71.41C535.11 72.44 538.93 70.94 540.5 70.66C542.07 70.38 541.29 68.5 536.87 67.94C532.46 67.38 526.72 70.49 528.83 71.5C530.79 72.44 531.96 70.38 533.53 71.41ZM271.83 25.16C274.77 25.26 283.01 23 283.31 21.51C283.6 20 280.26 20.1 278.99 18.78C277.72 17.47 274.87 18.6 274.18 19.72C273.5 20.85 272.71 19.82 274.57 18.03C276.44 16.25 272.71 14.84 272.61 15.97C272.51 17.1 269.08 16.16 269.08 17.19C269.08 18.22 267.81 18.69 267.91 19.72C268 20.75 265.55 19.16 265.45 21.5C265.36 23.85 261.65 25.22 263.1 26.01C264.47 26.76 268.89 25.07 271.83 25.16ZM392.28 47.39C393.07 48.14 396.01 47.02 397.19 46.64C398.36 46.27 398.46 48.33 400.33 47.21C402.19 46.08 404.05 46.64 406.21 46.64C408.37 46.64 405.82 44.11 405.92 42.99C406.02 41.86 408.47 42.61 407.68 43.55C406.9 44.49 408.86 46.64 412 46.46C415.14 46.27 412.78 44.39 414.35 43.74C415.92 43.08 415.73 42.33 413.47 41.01C411.22 39.7 408.27 40.55 406.31 39.7C404.21 38.8 401.7 38.76 401.6 40.83C401.5 42.89 397.38 38.57 395.22 37.92C393.07 37.26 386.39 43.78 389.64 45.33C391.01 45.99 391.5 46.64 392.28 47.39ZM405.82 53.4C402.78 52.93 399.95 55.32 400.33 55.84C401.21 57.06 408.37 57.71 410.14 57.34C411.9 56.96 408.86 53.87 405.82 53.4ZM399.15 52.37C400.33 52.74 402.29 52.55 402.29 51.15C402.29 49.74 396.95 51.66 399.15 52.37ZM427.4 47.86C431.92 48.15 435.25 47.3 435.35 46.36C435.45 45.42 431.23 44.02 429.95 44.77C428.68 45.52 427.7 43.55 426.13 44.02C424.56 44.49 422.4 44.39 421.61 43.08C420.83 41.77 418.18 45.14 419.36 45.24C421.71 45.42 422.89 47.58 427.4 47.86ZM97.23 6.12C97.62 5.18 93.01 4.9 91.34 5.75C89.67 6.59 85.77 5.91 86.24 6.96C86.54 7.62 89.38 9.12 91.64 7.15C93.89 5.18 96.83 7.06 97.23 6.12ZM408.96 158.92C407 157.52 407.78 154.61 406.8 155.17C405.82 155.74 406.8 158.27 405.23 158.46C403.66 158.64 405.13 160.05 404.55 161.93C403.96 163.8 404.84 166.52 405.63 168.21C406.41 169.9 404.55 178.9 405.33 180.41C406.11 181.91 404.05 188.54 404.74 189.31C405.92 190.63 405.13 187.53 406.9 187.25C408.67 186.97 408.67 189.13 409.75 189.6C410.82 190.06 410.14 186.59 409.16 186.78C408.18 186.97 407.39 184.53 406.9 183.03C406.41 181.53 407.88 179.75 407.88 177.87C407.88 175.99 410.34 176.09 411.81 177.49C413.28 178.9 413.47 177.96 412.89 176.93C412.3 175.9 410.43 168.4 409.35 165.68C408.27 162.96 410.92 160.33 408.96 158.92ZM96.34 7.9C95.66 8.84 92.64 8.5 93.21 9.59C93.8 10.72 98.7 10.81 98.7 9.87C98.7 8.93 101.25 9.78 101.35 8.93C101.45 8.09 102.52 7.15 105.27 6.96C108.02 6.78 108.02 5.84 105.47 4.71C102.92 3.59 99.48 5.37 100.86 6.31C102.23 7.25 97.03 6.96 96.34 7.9ZM102.82 80.88C104.1 80.7 102.03 79.38 99.88 78.82C97.72 78.26 94.64 80.33 96.64 82.1C99.29 84.44 101.55 81.07 102.82 80.88ZM561.64 94.76C560.85 93.69 557.08 93.17 557.08 93.73C557.08 94.3 555.85 93.59 555.56 92.98C555.26 92.37 551.29 92.28 551.24 92.93C551.19 93.59 552.17 93.64 552.76 94.39C553.35 95.14 551.97 95.56 552.27 96.41C552.56 97.25 550.8 95.98 550.16 95.52C549.52 95.05 549.82 93.22 550.01 92.28C550.21 91.34 548.89 91.53 548.74 90.59C548.59 89.65 544.18 87.73 542.32 86.98C540.45 86.23 538.05 85.57 537.41 84.64C536.77 83.7 533.44 83.6 532.16 82.34C530.89 81.07 525.29 78.82 522.89 78.68C520.49 78.54 521.03 77.27 519.85 77.46C518.67 77.65 513.62 77.41 512.05 77.18C510.48 76.95 510.14 78.07 509.01 77.65C507.88 77.23 502.04 75.21 501.36 75.96C500.67 76.71 500.97 77.79 500.28 77.98C499.6 78.16 500.28 79.1 501.9 80.51C503.52 81.92 502.53 83 501.06 83.6C499.59 84.21 497.24 83.04 496.5 81.96C495.77 80.89 493.76 81.35 493.26 79.95C492.77 78.54 493.85 78.31 494.84 79.1C495.82 79.9 497.14 79.24 497.29 78.21C497.43 77.18 494.64 76.48 493.12 76.57C491.6 76.66 490.76 78.68 489.19 79.53C487.63 80.37 481.54 79.2 480.91 78.64C480.27 78.08 471.78 78.64 470.9 79.2C470.02 79.76 470.66 81.96 470.21 82.15C469.77 82.34 469.33 79.62 469.33 79.1C469.33 78.58 468.3 78.21 466.78 78.21C465.26 78.21 464.38 78.16 465.02 77.56C465.66 76.95 464.43 76.33 465.6 75.54C466.78 74.74 463.45 72.25 460.21 71.04C456.97 69.82 449.62 70.52 447.65 71.08C445.69 71.65 441.77 71.46 439.91 71.5C438.04 71.55 439.56 70.8 439.02 69.96C438.49 69.11 435.3 68.08 434.85 68.79C434.41 69.49 433.58 68.79 433.58 68.27C433.58 67.75 430.59 66.72 429.41 66.96C428.24 67.19 427.7 65.92 429.07 65.92C430.44 65.92 432.8 66.2 431.77 64.7C430.74 63.2 421.91 62.73 421.08 63.01C420.24 63.3 421.03 64.37 419.11 66.11C417.2 67.84 415.34 66.67 415.58 65.83C415.83 64.99 418.18 65.13 418.18 64.28C418.18 63.44 414.94 63.91 414.45 63.2C413.96 62.5 415.14 62.03 416.32 62.36C417.49 62.69 419.55 62.88 419.65 62.36C419.75 61.84 418.43 61.75 416.46 61.42C414.5 61.09 409.74 60.01 407.24 60.25C404.74 60.48 403.61 59.36 402.24 59.26C400.87 59.17 400.87 59.97 401.51 60.72C402.14 61.47 400.18 61.94 398.56 61.7C396.94 61.47 394.59 62.55 395.52 63.67C396.45 64.8 397.39 63.34 398.17 63.72C398.95 64.1 396.11 64.89 397.29 65.41C398.46 65.92 398.27 67 398.32 67.57C398.36 68.13 396.35 68.41 395.62 67.57C394.88 66.72 393.85 67.47 392.48 67.38C391.11 67.28 390.08 67.89 391.55 68.08C393.02 68.27 393.51 69.16 391.55 69.35C389.59 69.54 390.07 67.61 388.9 67.85C387.72 68.08 385.17 66.96 383.8 67C382.43 67.05 381.79 68.08 379.97 68.22C378.16 68.36 375.71 67.33 374.97 66.39C374.24 65.45 373.99 65.17 373.11 66.25C372.23 67.33 372.18 69.4 371.29 69.54C370.41 69.68 370.07 71.5 369.18 71.98C368.3 72.44 368.25 71.27 367.12 71.37C366 71.46 362.37 68.08 362.17 67.1C361.97 66.11 359.72 64.24 359.13 63.86C358.54 63.49 359.72 63.3 360.45 63.91C361.19 64.52 362.12 64.52 362.86 64.14C363.59 63.77 363.5 62.03 362.22 61.98C360.94 61.94 361.43 60.91 362.07 60.72C362.71 60.53 360.6 58.7 361.39 58.51C362.17 58.33 361.83 57.53 360.75 57.39C359.67 57.25 358.54 56.4 358.49 55.89C358.44 55.37 353.88 55.18 354.08 55.93C354.27 56.68 352.6 56.45 352.85 55.84C353.1 55.23 351.23 55.42 349.07 54.85C346.92 54.29 346.87 52.84 346.13 52.75C345.4 52.65 345.64 54.76 344.57 54.29C343.49 53.82 342.31 54.71 342.89 55.93C343.48 57.15 342.94 57.34 342.85 58.33C342.75 59.31 342.16 58.89 340.89 58.47C339.61 58.04 339.61 59.5 336.86 58.84C334.12 58.18 332.89 58.89 332.4 58.04C331.91 57.2 331.08 57.11 330.98 57.81C330.88 58.51 326.66 58.23 326.32 57.2C325.98 56.17 327.05 55.98 327.69 55.7C328.33 55.42 327.01 55 324.7 55.14C322.4 55.28 320.92 54.01 318.57 54.24C316.21 54.48 310.97 54.95 310.23 55.28C309.5 55.6 310.92 56.87 309.79 56.96C308.66 57.06 309.45 54.9 309.25 53.87C309.06 52.83 307.34 52.69 307.58 53.49C307.82 54.29 304.88 54.57 304.15 53.96C303.42 53.35 302.24 52.55 300.32 52.08C298.41 51.62 296.06 53.59 296.6 54.15C297.14 54.71 298.56 54.29 298.61 54.66C298.71 55.44 294.54 55.14 294.54 55.79C294.54 56.45 290.66 57.34 289.49 57.48C286.26 57.87 285.56 57.85 284.04 59.07C282.52 60.29 283.7 58 284.88 56.87C286.05 55.75 287.28 56.21 287.97 55.32C288.65 54.43 289.73 54.52 291.6 54.24C293.46 53.96 293.36 52.93 294.25 52.56C295.13 52.18 297.28 51.38 297.68 50.54C298.07 49.69 302.48 48.29 303.37 48.33C304.25 48.38 304.44 46.65 304.93 46.65C305.43 46.65 307.97 45.57 308.95 45.15C309.94 44.73 310.43 43.83 310.48 43.22C310.52 42.61 309.15 42.71 309 42.14C308.85 41.58 309.64 41.96 310.67 41.58C311.7 41.21 310.67 39.89 309.84 40.13C309 40.36 310.28 39.42 309.54 38.58C308.81 37.74 307.34 39.09 307.38 38.2C307.43 37.31 307.28 36.19 306.7 35.63C306.11 35.06 305.03 36.61 303.8 35.72C302.58 34.83 299 34.26 299 34.64C299 35.02 297.28 34.08 296.94 34.45C296.6 34.83 293.75 34.78 292.86 34.55C291.98 34.31 290.76 34.87 290.71 35.72C290.66 36.57 287.18 36.24 286.54 36.09C285.9 35.95 288.94 33.56 288.94 33.14C288.94 32.72 283.79 33.23 283.5 32.77C283.2 32.3 280.7 32.15 279.57 32.2C278.44 32.25 279.53 31.92 280.56 31.83C281.59 31.73 282.52 30.89 283.65 30.7C284.77 30.51 284.53 30.14 284.04 29.48C283.55 28.83 282.37 29.15 281.24 28.83C280.11 28.5 278.74 28.03 277.76 27.98C276.78 27.94 275.7 28.45 273.4 28.87C271.09 29.29 270.89 30.98 269.72 31.5C268.54 32.02 266.48 34.08 267.46 34.26C268.44 34.45 267.95 35.02 268.1 35.63C268.25 36.23 267.36 36.37 266.24 36.19C265.11 36 261.13 36.05 261.18 36.84C261.23 37.64 263.49 38.02 263.34 38.44C263.2 38.86 261.63 38.39 260.84 37.97C260.06 37.55 258.29 37.78 257.95 38.58C257.6 39.38 256.23 39.19 255.79 39C255.35 38.82 254.37 39.38 253.63 39.14C252.9 38.91 255.1 37.88 254.56 37.36C254.02 36.85 251.67 37.32 251.43 38.16C251.18 39 249.76 37.55 249.22 37.83C248.68 38.11 248.09 38.44 247.06 38.86C246.03 39.28 244.27 38.39 243.87 39.14C243.48 39.89 245.83 40.13 245.88 40.46C245.93 40.79 240.54 40.74 240.39 41.25C240.24 41.77 238.43 41.77 236.22 41.82C234.01 41.87 234.9 42.9 233.13 43.23C231.36 43.56 230.58 43.6 229.99 44.45C229.41 45.29 228.03 45.43 227.44 44.77C226.85 44.12 225.23 45.1 226.12 45.19C227 45.29 226.17 46.13 225.63 45.94C225.09 45.76 223.52 46.84 224.4 46.74C225.28 46.65 225.73 47.35 225.28 47.87C224.84 48.38 222.93 47.26 222.44 47.73C221.95 48.2 223.37 48.81 224.25 48.71C225.14 48.62 225.63 49.18 225.73 49.79C225.82 50.4 223.66 49.41 223.22 49.93C222.78 50.45 223.57 50.68 224.5 50.78C225.43 50.87 224.74 51.2 225.58 51.9C225.64 51.96 225.69 52.01 225.74 52.05C226.24 52.63 225.29 52.84 225.38 53.4C225.48 54.01 224.45 54.24 224.45 53.68C224.45 53.12 221.85 52.93 221.31 53.54C220.77 54.15 220.38 54.62 219.74 54.06C219.1 53.5 217.24 54.2 214.84 54.29C212.43 54.39 207.48 54.57 206.26 55C205.03 55.42 204 57.06 205.12 58.14C206.26 59.22 205.17 59.69 205.17 60.39C205.17 61.09 208.12 62.55 209.68 62.69C211.26 62.83 212.53 64.66 211.6 65.78C210.67 66.91 207.82 65.45 205.96 64.05C204.09 62.64 199.78 62.08 198.35 62.17C196.93 62.26 197.77 60.95 195.95 61C194.13 61.05 192.62 62.59 193.84 62.59C195.07 62.59 195.85 62.5 195.22 63.06C194.58 63.62 195.56 63.49 197.03 64.09C198.5 64.7 195.81 65.55 194.28 64.56C192.77 63.58 191.15 64.51 190.71 65.27C190.26 66.02 192.47 68.17 195.12 68.55C197.77 68.92 196.88 69.72 198.11 70.14C199.34 70.57 198.46 71.04 197.62 71.08C196.78 71.13 195.12 69.86 193.79 69.21C192.47 68.55 188.89 69.49 188.16 68.74C187.42 67.98 188.64 67.24 187.96 66.67C187.27 66.11 187.86 64.84 188.75 63.53C189.63 62.22 188.6 59.96 187.32 59.59C186.05 59.22 186.15 60.48 186.44 60.85C186.73 61.23 186.59 63.01 185.6 64.19C184.62 65.36 181.63 65.36 181.63 66.16C181.63 66.95 179.62 67.57 180.31 68.13C181 68.69 183.69 71.6 184.09 72.49C184.48 73.38 181.68 76.19 182.12 77.84C182.56 79.48 181.73 80.23 182.27 81.02C182.81 81.82 184.03 81.12 184.82 81.45C185.61 81.78 186.88 80.98 188.7 80.65C190.51 80.32 193.85 82.15 195.07 82.72C196.3 83.28 195.66 84.21 196.3 85.15C196.94 86.09 194.83 86.09 194.78 87.5C194.73 88.91 198.45 89.51 198.6 89.94C198.75 90.36 195.95 90.03 194.87 89.66C193.8 89.28 193.7 87.92 193.35 87.64C193.01 87.36 194.09 86.23 194.18 85.34C194.29 84.45 192.96 83.93 192.52 83.33C192.08 82.72 191.29 81.82 190.41 82.01C189.53 82.2 186.29 82.48 185.31 83.33C184.33 84.17 185.46 86.56 186 87.73C186.54 88.91 183.15 90.55 183.25 91.49C183.35 92.42 182.22 92.84 180.75 93.6C179.28 94.34 177.66 94.91 177.7 96.13C177.76 97.35 175.75 96.69 174.72 96.13C173.69 95.57 172.36 96.46 170.89 96.41C169.42 96.36 169.42 95.19 168.24 95.61C167.07 96.03 166.28 95.1 166.62 94.25C166.97 93.41 168.29 94.07 168.39 94.67C168.49 95.28 169.32 95 170.3 94.49C171.28 93.97 170.79 95.15 172.22 95.24C173.64 95.33 172.85 94.54 173.93 94.63C175.01 94.72 175.06 94.4 174.72 93.88C174.37 93.36 175.5 92.99 176.19 92.71C176.96 92.39 176.58 91.35 177.22 91.02C177.85 90.69 177.41 90.03 178.1 89.99C178.79 89.94 179.08 88.95 179.72 88.95C180.35 88.95 180.7 87.97 180.31 87.45C179.91 86.94 180.55 85.53 181.19 85.34C181.83 85.16 181.88 84.59 181.29 84.17C180.7 83.75 178.54 82.34 178.69 81.45C178.84 80.56 178.3 78.92 178.59 78.22C178.88 77.51 178.64 76.06 178.54 75.21C178.44 74.37 179.08 73.43 179.38 71.88C179.67 70.34 177.66 68.69 176.68 68.27C175.7 67.85 176.33 67 177.76 65.88C179.18 64.75 179.28 61.24 179.18 60.49C179.08 59.74 176.18 59.08 175.06 59.17C173.93 59.27 169.76 59.08 168.73 58.89C167.7 58.7 167.36 59.74 166.87 60.67C166.38 61.61 165.3 63.06 164.66 65.17C164.02 67.29 161.42 67.94 160.25 68.41C159.07 68.88 158.33 70.43 158.87 71.18C159.41 71.93 160.2 71.32 160.74 71.6C161.28 71.88 160.69 73.85 160.34 74.13C160 74.41 160.98 75.12 160.15 75.63C159.31 76.15 158.53 77.23 159.02 77.79C159.51 78.35 161.91 78.64 162.94 79.2C163.97 79.76 163.58 80.79 164.37 81.78C165.15 82.76 165.98 82.16 166.38 82.76C166.77 83.37 164.96 85.81 164.32 85.9C163.68 86 161.08 83.42 160.29 82.86C159.51 82.3 156.47 81.4 154.95 80.65C153.43 79.9 152.2 80 150.53 78.92C148.87 77.84 147.45 77.32 144.4 77.37C141.36 77.42 139.4 76.71 138.37 76.85C137.34 77 137.73 75.87 135.92 75.12C134.1 74.37 132.92 73.34 131.89 73.85C130.87 74.37 131.26 76.25 132.83 76.48C134.39 76.71 133.61 77.51 135.28 77.42C136.95 77.33 137.44 77.89 137.39 78.87C137.34 79.86 138.17 80.84 138.91 81.5C139.64 82.16 139.2 83.23 137.88 83.23C136.55 83.23 135.04 83.42 135.62 84.31C136.21 85.21 135.23 85.44 133.91 84.97C132.58 84.5 133.37 83.61 133.91 83.09C134.45 82.58 132.73 81.92 131.89 81.64C131.06 81.36 127.73 83.71 126.8 84.08C125.86 84.45 123.56 83.52 121.2 84.08C118.85 84.64 119 86.42 118.11 86.24C117.23 86.05 114.63 86.47 113.65 85.91C112.67 85.35 113.46 85.02 114.48 85.07C115.52 85.11 115.86 84.78 115.27 84.13C114.68 83.47 116.06 82.44 116.01 81.97C115.96 81.5 112.13 82.72 111.49 83.24C110.85 83.75 111.54 84.69 110.85 85.02C110.17 85.35 110.17 84.46 109.38 84.17C108.6 83.89 102.86 85.16 101.78 86.33C100.7 87.5 98.59 87.55 98.59 88.21C98.59 88.87 95.99 88.82 94.96 89.29C93.93 89.75 94.62 91.68 94.23 92.62C93.84 93.56 89.81 93.27 88.59 93.32C87.36 93.37 86.92 91.07 85.94 90.93C84.96 90.78 85.55 89.47 85.84 88.91C86.14 88.35 86.92 88.82 88.15 88.07C89.37 87.32 90.6 88.44 91.09 87.92C91.58 87.41 89.23 86.05 89.08 84.88C88.93 83.7 86.33 83.37 84.86 83.75C83.39 84.13 81.77 83.8 80.74 83.33C79.71 82.86 79.81 84.17 81.33 84.55C82.85 84.92 82.06 86.05 82.31 86.75C82.56 87.45 81.92 89.05 81.04 90.27C80.15 91.49 80.79 91.44 82.12 91.39C83.44 91.35 83.34 92.99 83.34 94.21C83.34 95.42 82.31 95.75 82.31 96.65C82.31 97.54 81.23 96.22 80.89 96.6C80.55 96.97 80.1 96.41 79.91 95.66C79.71 94.91 77.7 95.33 76.57 95.05C75.44 94.77 75 95.24 74.47 96.03C73.92 96.83 72.35 97.16 71.52 97.25C70.59 97.36 69.22 98.9 68.33 99.46C67.45 100.02 67.3 101.1 68.53 102.22C69.76 103.35 70 104.1 69.9 104.71C69.8 105.32 66.47 105.13 65.93 104.47C65.39 103.82 63.23 103.59 62.5 103.72C61.76 103.86 59.75 101.61 58.72 101.57C57.69 101.52 57.05 102.74 56.71 103.35C56.37 103.96 57.2 104.15 57.69 105.18C58.18 106.21 60 106.26 60.93 106.26C61.86 106.26 61.51 107.62 61.22 108.18C60.93 108.74 59.21 109.17 58.72 108.55C58.23 107.95 56.17 108.55 56.12 107.8C56.07 107.05 54.6 105.93 53.08 106.16C51.56 106.4 51.26 105.46 51.36 104.33C51.46 103.21 50.53 102.55 50.58 102.04C50.63 101.52 49.89 100.49 50.68 99.97C51.46 99.46 50.87 98.66 50.92 97.96C50.97 97.25 49.6 96.17 48.37 96.17C47.15 96.17 47.39 95 46.36 94.76C45.33 94.53 43.27 92.89 43.12 92.19C42.98 91.48 41.41 91.39 41.95 91.15C42.49 90.92 43.71 91.25 44.59 92.09C45.48 92.93 46.9 93.69 49.2 93.97C51.51 94.25 52.44 95.28 54.99 95.7C57.54 96.13 59.06 96.41 62.74 96.92C66.42 97.44 71.32 93.87 72.35 92.89C73.38 91.9 72.06 89.89 72.06 89.14C72.06 88.38 70.39 88.29 70.15 87.73C69.9 87.17 68.82 86.13 67.4 86.13C65.98 86.13 65.78 84.59 64.65 84.68C63.52 84.77 62.74 84.21 59.8 82.33C56.85 80.46 52.78 79.1 52.05 79.42C51.31 79.75 50.82 79.94 50.33 79.24C49.84 78.54 48.72 78.63 47.93 79.19C47.14 79.75 46.36 78.68 44.89 79C43.41 79.33 42.63 78.4 43.02 77.97C43.41 77.55 45.58 77.93 45.48 77.22C45.38 76.52 44.59 77.22 43.27 76.38C41.94 75.54 41.21 76.1 40.91 76.8C40.62 77.5 39.59 77.32 38.9 76.71C38.84 76.65 38.76 76.6 38.68 76.56C38.45 77.73 37.73 77.85 36.99 77.69C36.11 77.5 35.23 78.91 34.25 78.91C33.26 78.91 32.19 79.94 31.99 80.79C31.79 81.63 30.71 81.16 30.71 81.72C30.71 82.29 30.71 82.85 30.22 83.41C29.73 83.98 30.22 84.26 30.71 85.19C31.2 86.13 32.28 86.04 32.77 86.32C33.26 86.6 35.13 88.1 35.13 88.66C35.13 89.23 33.66 90.64 33.07 91.01C32.48 91.38 31.69 92.32 32.08 92.89C32.48 93.45 34.15 95.8 35.22 97.67C36.3 99.55 34.83 98.7 34.15 99.54C33.46 100.39 34.44 101.42 34.63 101.99C34.83 102.55 33.75 102.45 33.85 102.92C33.95 103.39 35.42 103.58 35.52 103.95C35.62 104.33 34.54 104.8 35.03 105.55C35.52 106.3 36.69 106.3 36.79 107.24C36.89 108.18 34.63 108.27 34.73 109.02C34.83 109.77 37.67 110.71 38.95 112.12C40.23 113.52 40.13 113.9 39.83 114.65C39.24 116.16 35.72 117.46 34.93 119.15C34.14 120.84 31.2 121.78 29.83 123.09C29.27 123.63 28.71 124.35 28.25 125.02C28.83 124.88 29.29 124.71 29.63 124.54C30.42 124.17 30.95 126 31.74 126.61C32.53 127.22 34.1 126.65 34.63 127.22C35.17 127.78 34.19 127.83 33.07 127.64C31.94 127.45 31.64 128.11 29.88 128.67C28.56 129.09 28.69 129.54 28.25 129.89C29.04 131 27.98 131.14 27.57 131.98C27.13 132.89 26.54 133.03 26.47 133.59C26.39 134.16 26.62 134.58 26.69 135.42C26.76 136.27 26.91 136.41 27.42 137.11C27.94 137.82 26.98 137.82 26.54 138.17C26.1 138.52 26.39 139.29 26.98 139.85C27.57 140.42 27.57 141.12 27.35 141.61C27.13 142.1 27.87 142.95 28.38 143.44C28.9 143.93 28.83 145.27 29.26 145.62C29.71 145.98 30.22 146.33 31.03 146.11C31.84 145.9 32.35 146.26 32.72 146.89C33.09 147.52 33.68 147.24 34.49 146.89C35.3 146.54 37.14 147.52 37.58 147.73C38.02 147.94 37.8 149.14 37.87 149.91C37.95 150.69 37.43 151.67 38.24 152.17C39.05 152.66 38.83 153.78 39.79 154.13C40.74 154.49 41.11 155.75 41.7 155.89C42.29 156.03 43.39 156.88 43.54 157.51C43.68 158.14 42.51 158.71 41.84 158.99C41.18 159.27 39.93 158.14 39.49 158.64C39.05 159.13 39.64 160.04 40 161.59C40.37 163.14 40.67 163.28 41.41 163.28C42.14 163.28 42.43 162.79 42.95 162.5C43.46 162.22 44.64 162.64 45.16 162.44C45.67 162.22 47.51 162.15 47.88 162.72C48.25 163.28 48.61 164.62 48.32 165.11C48.02 165.6 48.69 166.17 49.06 166.87C49.42 167.57 50.97 167.22 51.48 167.43C52 167.64 53.17 169.19 52.95 169.89C52.73 170.6 53.69 170.74 54.21 170.53C54.72 170.31 55.24 170.88 55.82 171.23C56.41 171.58 56.93 171.44 57.51 171.09C58.1 170.74 59.06 170.46 59.35 170.95C59.65 171.44 60.83 172.36 60.83 172.64C60.83 172.92 62.66 172.64 63.55 173.06C64.43 173.48 65.39 173.27 66.34 173.76C67.3 174.25 68.18 174.32 68.25 174.89C68.33 175.45 67.3 175.94 67.3 176.22C67.3 176.51 68.11 176.72 68.11 177.14C68.11 177.56 67.08 177.56 66.93 177.91C66.78 178.27 67.52 178.76 67.66 179.11C67.81 179.46 67.08 180.66 67.08 181.01C67.08 181.36 64.87 180.94 64.35 180.94C63.84 180.94 62.29 182.56 61.78 182.62C61.34 182.69 61.55 183.46 61.71 184.13C63.29 183.84 64.91 183.72 65.09 184.06C65.39 184.62 61.66 186.12 60.97 186.35C60.28 186.59 62.3 187.57 62.25 188.14C62.2 188.7 60.08 188.84 60.28 189.96C60.48 191.09 59.6 191.33 58.47 191.33C57.34 191.33 57.05 191.98 57.59 192.08C58.13 192.17 58.08 193.58 60.19 194.09C62.29 194.61 64.55 196.49 66.37 198.36C66.62 198.62 66.91 198.83 67.23 199.01C67.75 198.71 68.21 198.49 68.47 198.45C69.5 198.31 71.42 198.88 72.45 199.58C73.48 200.28 77.15 199.44 77.59 200C78.04 200.56 78.92 201.27 79.66 201.27C80.39 201.27 81.13 202.68 81.72 202.25C82.3 201.83 84.51 201.83 85.1 201.83C85.69 201.83 85.69 202.25 86.28 202.25C86.87 202.25 86.87 204.36 87.31 204.22C87.75 204.08 89.37 205.49 90.4 205.63C91.43 205.77 92.46 207.46 92.9 207.32C93.34 207.18 94.08 208.02 94.37 207.32C94.65 206.65 96.1 206.98 96.51 205.82C94.65 203.64 92.65 201.22 92.7 200.28C92.8 198.69 93.49 197.66 91.43 195.97C89.37 194.28 91.63 193.16 93.1 191.37C94.41 189.78 97.21 189.08 98.98 187.95C98.62 187.71 98.25 187.49 97.9 187.34C96.58 186.78 96.14 186.21 97.17 185.93C98.2 185.65 97.76 185.09 96.73 183.96C95.7 182.84 95.25 181.71 94.67 181.71C94.08 181.71 93.19 181.57 92.31 181.85C91.43 182.13 91.58 181.15 91.72 180.16C91.87 179.18 90.11 179.32 89.81 178.89C89.52 178.47 90.25 177.07 90.55 176.93C90.84 176.78 91.72 176.36 91.72 175.94C91.72 175.52 90.11 175.38 90.69 174.39C91.28 173.41 92.46 173.41 92.46 172.42C92.46 171.44 93.34 170.6 94.37 171.3C95.4 172 95.84 173.83 97.02 173.41C98.2 172.99 97.46 172 97.31 171.44C97.17 170.88 96.87 170.03 98.2 169.75C99.52 169.47 98.93 168.2 99.96 168.2C100.99 168.2 102.9 166.94 103.49 166.66C104.08 166.37 105.41 165.67 105.99 165.95C106.58 166.24 107.32 166.94 107.76 165.95C108.2 164.97 109.97 165.39 110.11 165.95C110.26 166.52 113.06 166.52 113.94 167.08C114.82 167.64 116.73 168.77 116.73 169.33C116.73 169.89 117.62 170.74 117.62 169.75C117.62 168.77 118.35 169.05 119.53 169.75C120.71 170.46 122.33 170.18 122.62 169.47C122.91 168.77 125.12 167.93 125.86 168.49C126.59 169.05 126.89 169.47 127.77 168.63C128.65 167.78 130.71 167.93 131.01 168.77C131.3 169.61 132.33 169.75 133.21 169.75C134.1 169.75 134.24 171.02 134.83 170.74C135.42 170.46 135.27 169.05 136.01 169.19C136.75 169.33 137.34 170.18 138.51 170.18C139.69 170.18 140.57 169.89 140.57 169.05C140.57 168.21 140.42 166.8 139.69 166.8C138.95 166.8 138.22 166.1 137.34 166.1C136.45 166.1 135.57 164.69 136.45 164.41C137.34 164.13 138.81 163.42 138.51 162.72C138.22 162.02 137.92 160.61 139.1 160.47C140.28 160.33 142.78 160.33 142.63 159.91C142.48 159.48 140.13 159.2 139.69 158.5C139.25 157.79 139.1 156.1 139.54 155.83C139.98 155.54 141.45 155.96 142.34 155.68C143.22 155.4 145.13 156.11 146.31 155.26C147.49 154.42 149.99 154.27 151.31 154.27C152.63 154.27 153.67 153.43 154.7 153.29C155.73 153.15 158.67 152.73 159.4 152.45C160.14 152.17 164.11 151.6 164.26 150.9C164.41 150.2 167.57 149.63 168.38 149.99C169.19 150.34 170.22 150.62 170.95 150.34C171.69 150.06 173.24 150.83 173.09 151.6C172.94 152.38 173.75 153.22 173.68 153.85C173.6 154.49 172.87 154.7 173.31 155.19C173.75 155.68 175.74 155.33 176.32 154.7C176.91 154.07 177.58 154.98 177.58 155.47C177.58 155.97 178.53 156.32 178.53 155.68C178.53 155.05 179.71 155.47 180.08 155.9C180.45 156.32 181.84 155.41 181.84 156.11C181.84 156.81 179.78 157.37 180.67 158.15C181.55 158.92 182.06 157.23 183.17 157.58C184.27 157.94 185.74 156.39 186.77 156.18C187.8 155.96 188.91 155.05 189.79 154.56C190.67 154.07 192.58 154.21 192 154.77C191.41 155.33 190.75 156.39 192.95 157.16C195.16 157.94 197.66 162.02 199.06 164.06C200.45 166.1 201.78 169.76 202.52 169.76C203.25 169.76 203.47 167.93 204.43 167.72C205.38 167.5 205.97 169.26 207 169.47C208.03 169.68 209.43 170.25 210.24 169.96C211.05 169.68 212.89 168.7 213.55 169.05C214.21 169.4 215.1 169.4 215.68 170.74C216.27 172.08 217.16 172.36 217.74 172.36C218.33 172.36 218.46 172.99 218.46 173.55C218.46 174.11 219.53 174.87 220.12 174.87C220.71 174.87 222.28 174.68 222.77 174.4C223.26 174.11 223.85 173.84 223.95 174.49C224.05 175.15 224.93 176.18 225.52 176.18C226.11 176.18 227.28 176.65 227.38 176.18C227.48 175.71 229.05 175.43 229.64 175.34C230.23 175.24 232.29 174.87 232.68 174.02C233.07 173.18 234.74 173.18 235.23 172.61C235.72 172.05 237.09 171.77 237.39 171.21C237.68 170.64 239.45 170.74 239.65 170.27C239.84 169.8 241.31 169.71 242 169.89C242.68 170.08 246.12 170.74 246.61 170.65C247.1 170.55 247.2 172.33 247.69 172.43C248.18 172.52 249.94 173.84 250.43 173.46C250.92 173.08 252.1 172.71 253.09 173.27C254.07 173.83 255.05 174.59 255.44 173.93C255.83 173.27 257.89 172.99 258.19 172.61C258.48 172.24 258.77 171.11 258.28 170.74C257.79 170.37 257.3 168.86 257.11 168.11C256.91 167.36 258.28 167.18 258.48 166.52C258.68 165.86 259.85 165.77 260.25 165.39C260.64 165.02 260.74 164.18 261.43 164.36C262.11 164.55 263.58 165.02 263.87 165.3C264.17 165.58 265.25 165.77 265.93 165.77C266.62 165.77 267.7 166.33 268.39 166.71C269.07 167.08 271.23 167.08 271.62 167.65C272.02 168.21 271.52 169.8 272.02 170.37C272.51 170.93 273.68 172.15 274.07 171.87C274.47 171.59 276.33 172.81 277.02 172.71C277.7 172.62 278.78 171.59 279.37 171.59C279.96 171.59 281.82 171.12 282.41 171.21C283 171.3 285.16 172.05 285.45 171.87C285.75 171.68 287.71 171.96 288.01 172.52C288.3 173.09 290.75 173.09 290.75 173.74C290.75 174.4 292.12 174.77 292.51 175.52C292.91 176.27 296.15 175.81 296.74 176.27C297.32 176.74 301.05 176.65 301.15 176.27C301.25 175.9 304.78 175.71 305.46 175.24C306.15 174.77 308.01 174.96 308.11 174.3C308.21 173.65 309.98 173.18 310.76 172.62C311.55 172.05 314.68 172.15 314.88 172.8C315.07 173.46 316.94 173.65 317.72 173.37C318.51 173.09 320.57 173.46 320.86 174.12C321.16 174.77 323.51 175.15 324.1 174.96C324.69 174.77 326.55 173.46 327.24 173.37C327.93 173.27 328.91 172.61 328.71 171.96C328.52 171.3 330.09 169.43 330.28 168.68C330.48 167.92 331.85 165.86 332.34 165.67C332.83 165.49 333.91 164.64 333.81 164.08C333.71 163.52 333.42 161.83 332.83 161.83C332.24 161.83 331.16 161.92 332.54 160.14C333.91 158.35 336.36 158.83 336.76 158.83C337.15 158.83 340.29 158.08 341.66 158.45C343.03 158.83 343.91 158.27 345.39 159.02C346.86 159.77 348.92 159.48 349.41 160.14C349.9 160.8 351.86 161.36 351.57 162.49C351.27 163.61 352.65 162.95 353.14 165.39C353.63 167.83 354.8 168.02 355.1 169.15C355.39 170.27 356.96 172.34 356.77 172.99C356.57 173.65 356.37 174.68 358.04 174.77C359.71 174.87 360.89 176.09 361.28 175.9C361.67 175.71 363.63 176.37 364.61 177.31C365.6 178.25 367.06 177.78 366.97 178.81C366.87 179.84 367.76 180.68 367.65 181.53C367.55 182.37 369.52 182.94 370.89 182.75C372.26 182.56 373.25 183.22 373.83 182.09C374.42 180.97 376.38 181.43 377.07 180.97C377.76 180.5 379.82 179.93 379.72 181.62C379.62 183.31 380.8 183.69 379.82 184.25C378.84 184.81 378.35 187.25 378.05 188.28C377.76 189.31 376.28 189.6 376.09 190.72C375.89 191.85 374.52 191.94 374.52 192.79C374.52 193.63 372.56 193.44 371.58 192.79C370.6 192.13 369.62 194.01 368.83 194.01C368.04 194.01 368.14 195.6 368.34 196.26C368.54 196.91 368.05 197.76 368.54 198.88C368.8 199.49 368.64 200.63 368.77 201.92C369.97 201.09 371.05 200.48 371.53 200.48C372.76 200.48 373.98 202.5 375.35 202.54C376.73 202.59 382.96 198.6 383.01 197.95C383.06 197.29 386.68 193.96 388.4 192.22C390.11 190.49 392.37 187.96 393.26 185.99C393.8 184.77 396.2 182.42 396.79 181.48C397.37 180.54 397.77 180.45 398.85 178.25C399.93 176.04 399.93 170.27 400.27 169.9C400.61 169.52 400.42 168.54 400.91 167.93C401.4 167.32 401.15 166.48 402.13 165.68C403.12 164.88 402.92 164.18 402.67 163.57C402.43 162.96 402.72 161.6 402.48 161.17C402.23 160.75 402.28 160.56 402.87 160.24C403.46 159.91 402.48 159.06 401.64 158.69C400.81 158.31 399.73 157.99 399.63 157.09C399.53 156.2 398.11 155.12 397.03 155.22C395.95 155.31 393.94 154.66 394.18 155.31C394.43 155.97 394.09 156.53 393.55 156.39C393.01 156.25 392.76 156.67 392.13 157.61C391.49 158.55 389.23 158.64 390.26 157.75C391.29 156.86 389.92 156.81 390.11 155.87C390.31 154.94 391.15 154 390.02 154.61C388.89 155.22 388.89 156.67 387.96 156.86C387.03 157.05 387.32 154.33 387.56 153.62C387.81 152.92 385.85 153.67 383.79 153.53C381.73 153.39 382.27 152.03 383.93 151.18C385.61 150.34 385.31 149.54 386.14 149.21C386.98 148.89 389.14 147.52 390.41 146.82C391.69 146.12 391.93 145.32 392.23 144.52C392.52 143.73 394.88 142.74 396.98 141.1C399.09 139.46 400.12 138.52 400.61 137.53C401.1 136.55 404.24 135.33 404.29 134.58C404.34 133.83 408.02 131.95 410.52 131.48C413.02 131.02 416.99 131.62 417.73 132.33C418.47 133.03 419.01 132.75 419.45 132.28C419.89 131.81 420.87 132.05 422.54 132.24C424.2 132.42 424.6 131.48 425.72 131.81C426.85 132.14 427.78 132.33 428.47 131.06C429.16 129.79 432.4 130.03 433.13 130.55C433.86 131.06 434.46 131.77 435.63 131.02C436.81 130.27 436.81 132 437.93 132.14C439.07 132.28 438.33 133.22 437.35 133.13C436.37 133.03 435.14 133.59 436.27 134.21C437.4 134.82 438.72 133.64 439.61 133.74C440.49 133.83 441.86 133.92 443.09 133.17C444.31 132.42 444.66 133.78 445.44 133.13C446.23 132.47 447.99 132.28 448.87 132.33C449.76 132.38 449.02 131.35 447.55 131.35C446.08 131.35 446.13 130.6 447.31 128.67C448.48 126.75 450.74 125.72 452.16 124.55C453.58 123.38 454.61 123.94 454.61 123.18C454.61 122.43 455.3 120.33 456.38 120.28C457.45 120.23 460.15 120.7 461.82 119.81C463.49 118.92 463.34 120.47 464.03 120.7C464.72 120.93 465.65 119.34 466.43 119.81C467.22 120.28 465.26 121.41 464.81 122.76C464.37 124.12 465.84 123.61 466.68 123.98C467.51 124.36 465.6 124.92 465.8 125.29C465.99 125.67 467.66 125.67 469.82 123.61C471.98 121.54 473.93 120.98 475.31 121.12C476.68 121.27 475.9 119.95 476 118.03C476.1 116.1 480.31 115.54 481.68 116.1C483.06 116.67 482.96 117.18 481.63 116.85C480.31 116.53 479.09 117.65 479.13 119.25C479.18 120.84 477.95 121.36 478.6 121.97C479.23 122.58 477.66 122.72 477.61 123.38C477.57 124.03 477.61 124.55 476.63 124.83C475.65 125.11 472.36 125.44 472.27 126.66C472.17 127.88 470.4 128.02 469.57 129.52C468.74 131.02 465.55 131.91 463.44 134.91C461.33 137.91 458 137.91 458 138.48C458 139.04 455.69 138.99 454.9 139.09C454.12 139.18 455.64 141.01 453.78 142.93C451.91 144.85 450.68 147.53 450.73 150.2C450.78 152.88 451.71 160.57 452.55 161.93C453.38 163.29 452.89 166.62 453.58 167.32C454.27 168.03 454.02 169.2 454.46 169.62C454.9 170.04 456.72 167.75 457.94 166.76C459.17 165.78 458.78 165.45 459.61 164.93C460.45 164.42 460.1 162.26 460.35 161.7C460.59 161.13 462.11 160.85 462.6 160.24C463.09 159.63 464.37 160.01 465.06 159.77C465.74 159.54 465 157.99 464.76 157.1C464.52 156.21 466.77 154.99 467.95 154.19C469.12 153.39 470.6 154.71 471.92 153.53C473.24 152.36 471.82 151 471.33 150.39C470.84 149.78 472.66 146.83 473.69 146.55C474.72 146.27 475.26 147.25 476.24 146.41C477.22 145.56 475.35 144.2 474.67 144.3C473.98 144.39 473.74 141.9 475.35 140.73C476.97 139.56 476.34 139.32 475.26 139.04C474.18 138.76 473.98 139.14 473.15 139.18C472.31 139.23 471.48 137.54 472.76 135.9C474.03 134.26 475.26 134.45 475.55 133.09C475.85 131.73 477.61 129.8 478.05 129.1C478.5 128.4 480.26 129.1 480.95 128.96C481.63 128.82 481.39 130.23 482.22 129.52C483.06 128.82 484.43 126.47 485.56 126.47C486.68 126.47 485.95 128.21 486.25 129.24C486.54 130.27 487.17 128.96 489.33 127.55C491.49 126.15 496.2 126.28 497.62 126.94C499.05 127.6 499.29 129.15 500.08 128.96C501.27 128.67 500.27 127.41 501.45 127.08C502.63 126.76 504.68 125.58 506.26 124.5C507.82 123.43 507.38 124.22 508.22 123.24C509.05 122.25 509.88 122.68 510.13 122.02C510.37 121.36 512.63 120.28 515.72 119.62C518.81 118.97 522.83 117 522.64 116.39C522.44 115.78 523.81 115.5 523.96 116.11C524.11 116.72 525.28 116.48 526.9 116.81C528.52 117.14 529.26 117.75 530.53 116.53C531.81 115.31 530.38 114.89 530.43 113.95C530.48 113.01 528.22 112.03 528.52 111.04C528.81 110.06 526.85 107.43 526.27 107.95C525.68 108.46 524.3 107.52 524.3 106.77C524.3 106.02 524.2 105.13 523.27 105.69C522.34 106.26 520.77 105.98 520.48 105.13C520.18 104.29 522.3 103.68 523.77 104.24C525.24 104.8 524.8 105.37 525.53 105.79C526.27 106.21 528.27 106.02 529.3 105.56C530.34 105.09 533.23 104.19 533.72 103.4C534.21 102.6 533.67 102.22 534.65 101.76C535.64 101.29 534.9 100.3 534.06 99.88C533.23 99.46 533.43 98.33 534.31 98.33C535.19 98.33 534.95 97.35 535.53 97.3C536.12 97.25 536.22 97.72 537.3 97.21C538.38 96.69 537.35 98 536.86 98.9C536.37 99.78 537.89 100.54 538.03 101.05C538.18 101.57 540.29 101.76 541.47 101.15C542.65 100.54 546.42 101.9 546.67 102.79C546.91 103.68 547.45 104.76 549.02 105.51C550.59 106.26 552.01 105.93 552.31 106.64C552.6 107.34 553.19 107.71 554.07 107.53C554.95 107.34 555.44 108.27 556.08 107.71C556.72 107.15 557.06 108.04 557.9 107.34C558.73 106.64 556.08 106.17 556.43 105.6C556.77 105.04 557.31 106.02 558.04 105.98C558.78 105.93 557.85 104.57 558.39 104.43C558.93 104.29 558.49 101.48 557.9 101.29C557.31 101.1 557.8 100.11 558.93 100.91C560.05 101.71 561.82 101.66 562.65 101.66C563.49 101.66 562.7 100.91 561.87 100.77C561.03 100.63 562.02 99.98 562.6 100.49C563.19 101.01 564.32 101.24 564.42 100.68C564.52 100.12 565.11 98.9 566.14 98.94C567.18 98.99 567.52 98.42 566.54 98.09C565.56 97.77 562.42 95.84 561.64 94.76ZM284.63 164.55C284.63 166.52 277.86 167.51 277.27 166.66C276.76 165.92 282.27 165.68 283.6 162.86C284.92 160.05 289.95 158.6 292.43 154.84C294.19 152.17 295.67 148.09 296.69 148.37C297.72 148.65 295.81 157.23 293.01 159.63C290.22 162.02 284.63 162.58 284.63 164.55ZM303.51 50.96C304.5 52.18 309.4 51.52 309.5 50.02C309.59 48.52 305.87 48.71 305.47 49.46C305.08 50.21 302.95 50.26 303.51 50.96ZM130.09 1.9C131.66 2.09 133.72 2 132.93 1.06C132.15 0.12 126.46 0.49 127.05 1.25C127.64 2 122.44 1.72 122.54 2C122.73 2.56 124.5 3.12 126.85 3.12C129.21 3.12 128.52 1.71 130.09 1.9ZM110.57 9.87C111.45 10.16 114.69 10.91 114.69 9.41C114.69 7.9 109.58 9.56 110.57 9.87ZM124.89 9.03C122.93 9.03 121.9 10.09 122.93 10.91C124.1 11.84 129.3 11.47 130.19 10.34C131.07 9.22 133.33 10.16 133.72 9.03C134.11 7.9 127.05 7.43 127.34 8.19C127.64 8.93 126.85 9.03 124.89 9.03ZM142.64 4.71C142.45 3.87 136.95 3.68 137.25 4.62C137.54 5.56 133.45 6.58 134.7 7.53C137.05 9.31 143.43 7.25 144.12 6.4C144.8 5.56 142.84 5.56 142.64 4.71ZM122.83 3.5C120.28 2.46 118.78 2.54 120.47 3.96C121.26 4.62 116.11 5.13 116.94 5.93C118.81 7.72 128.22 6.87 128.52 4.9C128.81 2.93 125.38 4.53 122.83 3.5ZM111.55 58.56C109.68 58.56 112.43 59.68 112.63 60.71C112.82 61.75 110.76 61 110.67 62.59C110.57 64.18 107.03 62.59 106.55 64.65C106.06 66.72 108.31 66.44 109.88 66.53C111.45 66.63 109.29 68.03 110.47 68.87C111.65 69.72 112.53 69.44 111.74 67.84C110.96 66.25 115.86 68.41 114.39 69.63C112.92 70.85 116.75 71.78 118.61 71.88C120.48 71.97 127.09 73.35 127.24 71.88C127.34 70.94 124.79 70.09 122.73 68.03C120.67 65.97 119.2 62.59 121.56 61.18C123.91 59.78 121.85 59.12 124.2 57.52C126.56 55.93 125.18 54.43 127.14 54.24C129.11 54.05 126.95 52.36 128.91 52.08C130.87 51.8 131.27 49.74 130.97 48.99C130.67 48.24 133.03 49.08 134.11 47.96C135.18 46.83 137.74 47.58 138.52 45.99C139.31 44.39 150.59 40.73 156.96 39.33C163.34 37.92 167.75 35.39 165.5 33.7C163.24 32.01 156.87 34.35 155.29 35.58C153.72 36.79 151.47 35.95 149.9 36.79C148.33 37.64 145 38.39 143.33 37.35C141.66 36.32 139.7 38.57 138.42 38.48C137.15 38.39 135.68 39.7 134.31 39.61C132.93 39.51 130.18 40.64 129.99 41.39C129.79 42.14 127.44 41.95 127.44 42.89C127.44 43.83 125.58 44.67 124.59 43.83C123.61 42.98 122.43 44.77 123.81 45.99C125.18 47.21 121.26 47.3 121.94 48.05C122.63 48.8 120.47 49.27 120.96 50.11C121.45 50.96 119.59 51.24 118.12 51.52C116.65 51.8 115.86 53.68 117.73 53.77C119.59 53.87 116.65 54.15 116.85 55.56C117.04 56.96 113.81 56.02 113.91 56.96C114 57.9 113.41 58.56 111.55 58.56Z" stroke="#FFFFFF" stroke-opacity="1.000000" stroke-width="1.000000"/>
</svg>
