<svg width="19.166016" height="18.333984" viewBox="0 0 19.166 18.334" fill="none" xmlns="http://www.w3.org/2000/svg" xmlns:xlink="http://www.w3.org/1999/xlink">
	<desc>
			Created with Pixso.
	</desc>
	<defs/>
	<path id="Vector" d="M18.33 9.16C18.33 14.22 14.22 18.33 9.16 18.33C4.11 18.33 0 14.22 0 9.16C0 4.11 4.11 0 9.16 0C11 0 12.77 0.53 14.27 1.55C14.62 1.79 14.72 2.26 14.48 2.61C14.25 2.96 13.77 3.05 13.42 2.82C12.16 1.97 10.69 1.52 9.16 1.52C4.95 1.52 1.52 4.95 1.52 9.16C1.52 13.37 4.95 16.8 9.16 16.8C13.37 16.8 16.8 13.37 16.8 9.16C16.8 8.43 16.7 7.72 16.5 7.04C16.38 6.63 16.61 6.21 17.02 6.09C17.42 5.97 17.85 6.2 17.97 6.61C18.21 7.43 18.33 8.29 18.33 9.16ZM9.16 9.65L17.74 1.07C18.07 0.75 18.59 0.75 18.92 1.07C19.24 1.4 19.24 1.92 18.92 2.25L9.75 11.42C9.59 11.58 9.38 11.66 9.16 11.66C8.95 11.66 8.74 11.58 8.57 11.42L5.24 8.08C4.91 7.76 4.91 7.23 5.24 6.91C5.57 6.58 6.09 6.58 6.42 6.91L9.16 9.65Z" fill="#FF5A30" fill-opacity="1.000000" fill-rule="evenodd"/>
</svg>
