<svg width="20.000000" height="20.000000" viewBox="0 0 20 20" fill="none" xmlns="http://www.w3.org/2000/svg" xmlns:xlink="http://www.w3.org/1999/xlink">
	<desc>
			Created with Pixso.
	</desc>
	<defs>
		<clipPath id="clip17_1007">
			<rect rx="-0.500000" width="19.000000" height="19.000000" transform="translate(0.500000 0.500000)" fill="white" fill-opacity="0"/>
		</clipPath>
	</defs>
	<g clip-path="url(#clip17_1007)">
		<path d="M16.67 4.42C17.03 4.07 17.55 4.07 17.9 4.42C18.25 4.77 18.25 5.3 17.9 5.65L5.65 17.9C5.3 18.25 4.77 18.25 4.42 17.9C4.07 17.55 4.07 17.02 4.42 16.67L7.31 13.79L6.79 13.79C5.82 13.79 5.04 13 5.04 12.04L5.04 8.54C5.04 7.57 5.82 6.79 6.79 6.79L8.8 6.79C9.24 6.79 9.59 6.61 9.94 6.44L12.39 4.42C12.91 3.99 13.79 4.42 13.79 5.12L13.79 7.31L16.67 4.42ZM13.79 15.45C13.79 16.24 13 16.58 12.39 16.15L10.55 14.75L13.79 11.51L13.79 15.45Z" fill="#FFFFFF" fill-opacity="1.000000" fill-rule="evenodd"/>
	</g>
</svg>
