<svg width="52.000000" height="52.000000" viewBox="0 0 52 52" fill="none" xmlns="http://www.w3.org/2000/svg" xmlns:xlink="http://www.w3.org/1999/xlink">
	<desc>
			Created with Pixso.
	</desc>
	<defs>
		<clipPath id="clip25_864">
			<rect id="ic-construction" rx="-0.500000" width="51.000000" height="51.000000" transform="translate(0.500000 0.500000)" fill="white" fill-opacity="0"/>
		</clipPath>
	</defs>
	<g clip-path="url(#clip25_864)">
		<path id="Vector" d="M50.47 27.52C51.31 27.52 52 26.84 52 26L52 14.62C52 13.78 51.31 13.1 50.47 13.1C49.41 13.1 28.66 13.1 27.52 13.1L27.52 3.25C27.52 2.4 26.84 1.72 26 1.72L9.75 1.72C8.9 1.72 8.22 2.4 8.22 3.25L8.22 13.1L1.52 13.1C0.68 13.1 0 13.78 0 14.62L0 26C0 26.84 0.68 27.52 1.52 27.52L8.22 27.52L8.22 35.85L1.52 35.85C0.68 35.85 0 36.53 0 37.37L0 48.75C0 49.59 0.68 50.27 1.52 50.27L50.47 50.27C51.31 50.27 52 49.59 52 48.75L52 37.37C52 36.53 51.31 35.85 50.47 35.85L43.77 35.85L43.77 27.52L50.47 27.52ZM48.95 24.47C47.32 24.47 37.25 24.47 35.64 24.47L35.64 16.14L48.95 16.14L48.95 24.47ZM32.6 24.47C31 24.47 21 24.47 19.39 24.47L19.39 16.14L32.6 16.14L32.6 24.47ZM11.27 4.77L24.47 4.77L24.47 13.1C22.88 13.1 12.87 13.1 11.27 13.1L11.27 4.77ZM3.04 24.47L3.04 16.14L16.35 16.14L16.35 24.47C14.73 24.47 4.67 24.47 3.04 24.47ZM11.27 27.52L24.47 27.52L24.47 35.85C22.88 35.85 12.87 35.85 11.27 35.85L11.27 27.52ZM3.04 38.89L16.35 38.89L16.35 47.22L3.04 47.22L3.04 38.89ZM19.39 38.89L32.6 38.89L32.6 47.22L19.39 47.22L19.39 38.89ZM48.95 38.89L48.95 47.22L35.64 47.22L35.64 38.89L48.95 38.89ZM40.72 35.85C39.13 35.85 29.12 35.85 27.52 35.85L27.52 27.52L40.72 27.52L40.72 35.85Z" fill="#FF5A30" fill-opacity="1.000000" fill-rule="nonzero"/>
	</g>
</svg>
